<mxfile host="app.diagrams.net" modified="2023-12-01T20:28:23.859Z" agent="Mozilla/5.0 (Windows NT 10.0; Win64; x64) AppleWebKit/537.36 (KHTML, like Gecko) Chrome/118.0.0.0 Safari/537.36 OPR/104.0.0.0" etag="Tqmzd5cAZZlXZlDCnXPJ" version="22.1.5" type="device">
  <diagram name="Page-1" id="X3VVh9jYEwnX4s4dEkGf">
    <mxGraphModel dx="2750" dy="3349" grid="1" gridSize="10" guides="1" tooltips="1" connect="1" arrows="1" fold="1" page="1" pageScale="1" pageWidth="827" pageHeight="1169" math="0" shadow="0">
      <root>
        <mxCell id="0" />
        <mxCell id="1" parent="0" />
        <object placeholders="1" c4Name="Tutor booking web platform" c4Type="Software System" c4Description="Allows students to book meetings &#xa;with tutors and vice versa" label="&lt;font style=&quot;font-size: 16px&quot;&gt;&lt;b&gt;%c4Name%&lt;/b&gt;&lt;/font&gt;&lt;div&gt;[%c4Type%]&lt;/div&gt;&lt;br&gt;&lt;div&gt;&lt;font style=&quot;font-size: 11px&quot;&gt;&lt;font color=&quot;#cccccc&quot;&gt;%c4Description%&lt;/font&gt;&lt;/div&gt;" id="5E3EmIhC8hp46Ea8LUjL-1">
          <mxCell style="rounded=1;whiteSpace=wrap;html=1;labelBackgroundColor=none;fillColor=#1061B0;fontColor=#ffffff;align=center;arcSize=10;strokeColor=#0D5091;metaEdit=1;resizable=0;points=[[0.25,0,0],[0.5,0,0],[0.75,0,0],[1,0.25,0],[1,0.5,0],[1,0.75,0],[0.75,1,0],[0.5,1,0],[0.25,1,0],[0,0.75,0],[0,0.5,0],[0,0.25,0]];" parent="1" vertex="1">
            <mxGeometry x="300" y="190" width="240" height="120" as="geometry" />
          </mxCell>
        </object>
        <object placeholders="1" c4Name="Platform User" c4Type="Person" c4Description="A user who wants to book a&#xa;meeting. The user can either be&#xa;a student or a tutor" label="&lt;font style=&quot;font-size: 16px&quot;&gt;&lt;b&gt;%c4Name%&lt;/b&gt;&lt;/font&gt;&lt;div&gt;[%c4Type%]&lt;/div&gt;&lt;br&gt;&lt;div&gt;&lt;font style=&quot;font-size: 11px&quot;&gt;&lt;font color=&quot;#cccccc&quot;&gt;%c4Description%&lt;/font&gt;&lt;/div&gt;" id="5E3EmIhC8hp46Ea8LUjL-2">
          <mxCell style="html=1;fontSize=11;dashed=0;whiteSpace=wrap;fillColor=#083F75;strokeColor=#06315C;fontColor=#ffffff;shape=mxgraph.c4.person2;align=center;metaEdit=1;points=[[0.5,0,0],[1,0.5,0],[1,0.75,0],[0.75,1,0],[0.5,1,0],[0.25,1,0],[0,0.75,0],[0,0.5,0]];resizable=0;" parent="1" vertex="1">
            <mxGeometry x="-180" y="140" width="200" height="180" as="geometry" />
          </mxCell>
        </object>
        <object placeholders="1" c4Type="Relationship" c4Description="Creates a meeting with another&#xa;user. The attendees can either decline&#xa;or propose to reschedule the meeting." label="&lt;div style=&quot;text-align: left&quot;&gt;&lt;div style=&quot;text-align: center&quot;&gt;&lt;b&gt;%c4Description%&lt;/b&gt;&lt;/div&gt;" id="5E3EmIhC8hp46Ea8LUjL-3">
          <mxCell style="endArrow=blockThin;html=1;fontSize=10;fontColor=#404040;strokeWidth=1;endFill=1;strokeColor=#828282;elbow=vertical;metaEdit=1;endSize=14;startSize=14;jumpStyle=arc;jumpSize=16;rounded=0;edgeStyle=orthogonalEdgeStyle;exitX=1;exitY=0.75;exitDx=0;exitDy=0;exitPerimeter=0;entryX=0.003;entryY=0.449;entryDx=0;entryDy=0;entryPerimeter=0;" parent="1" target="5E3EmIhC8hp46Ea8LUjL-1" edge="1">
            <mxGeometry width="240" relative="1" as="geometry">
              <mxPoint x="20" y="248" as="sourcePoint" />
              <mxPoint x="300" y="235" as="targetPoint" />
              <Array as="points">
                <mxPoint x="160" y="248" />
                <mxPoint x="160" y="243" />
                <mxPoint x="301" y="243" />
              </Array>
            </mxGeometry>
          </mxCell>
        </object>
        <object placeholders="1" c4Name="Platform Administrator" c4Type="Person" c4Description="This user is responsible for the management of the website" label="&lt;font style=&quot;font-size: 16px&quot;&gt;&lt;b&gt;%c4Name%&lt;/b&gt;&lt;/font&gt;&lt;div&gt;[%c4Type%]&lt;/div&gt;&lt;br&gt;&lt;div&gt;&lt;font style=&quot;font-size: 11px&quot;&gt;&lt;font color=&quot;#cccccc&quot;&gt;%c4Description%&lt;/font&gt;&lt;/div&gt;" id="5E3EmIhC8hp46Ea8LUjL-5">
          <mxCell style="html=1;fontSize=11;dashed=0;whiteSpace=wrap;fillColor=#083F75;strokeColor=#06315C;fontColor=#ffffff;shape=mxgraph.c4.person2;align=center;metaEdit=1;points=[[0.5,0,0],[1,0.5,0],[1,0.75,0],[0.75,1,0],[0.5,1,0],[0.25,1,0],[0,0.75,0],[0,0.5,0]];resizable=0;" parent="1" vertex="1">
            <mxGeometry x="770" y="140" width="200" height="180" as="geometry" />
          </mxCell>
        </object>
        <object placeholders="1" c4Type="Relationship" c4Description="Can create accounts for &#xa;users of the platform" label="&lt;div style=&quot;text-align: left&quot;&gt;&lt;div style=&quot;text-align: center&quot;&gt;&lt;b&gt;%c4Description%&lt;/b&gt;&lt;/div&gt;" id="5E3EmIhC8hp46Ea8LUjL-6">
          <mxCell style="endArrow=blockThin;html=1;fontSize=10;fontColor=#404040;strokeWidth=1;endFill=1;strokeColor=#828282;elbow=vertical;metaEdit=1;endSize=14;startSize=14;jumpStyle=arc;jumpSize=16;rounded=0;edgeStyle=orthogonalEdgeStyle;entryX=1;entryY=0.75;entryDx=0;entryDy=0;entryPerimeter=0;exitX=0;exitY=0.75;exitDx=0;exitDy=0;exitPerimeter=0;" parent="1" source="5E3EmIhC8hp46Ea8LUjL-5" target="5E3EmIhC8hp46Ea8LUjL-1" edge="1">
            <mxGeometry width="240" relative="1" as="geometry">
              <mxPoint x="980" y="370" as="sourcePoint" />
              <mxPoint x="780" y="390" as="targetPoint" />
            </mxGeometry>
          </mxCell>
        </object>
        <mxCell id="5E3EmIhC8hp46Ea8LUjL-7" value="&lt;font style=&quot;font-size: 36px;&quot;&gt;C1&lt;/font&gt;" style="ellipse;whiteSpace=wrap;html=1;aspect=fixed;" parent="1" vertex="1">
          <mxGeometry x="-220" y="10" width="80" height="80" as="geometry" />
        </mxCell>
        <object placeholders="1" c4Name="Platform User" c4Type="Person" c4Description="A user who wants to book a&#xa;meeting. The user can either be&#xa;a student or a tutor" label="&lt;font style=&quot;font-size: 16px&quot;&gt;&lt;b&gt;%c4Name%&lt;/b&gt;&lt;/font&gt;&lt;div&gt;[%c4Type%]&lt;/div&gt;&lt;br&gt;&lt;div&gt;&lt;font style=&quot;font-size: 11px&quot;&gt;&lt;font color=&quot;#cccccc&quot;&gt;%c4Description%&lt;/font&gt;&lt;/div&gt;" id="5E3EmIhC8hp46Ea8LUjL-14">
          <mxCell style="html=1;fontSize=11;dashed=0;whiteSpace=wrap;fillColor=#083F75;strokeColor=#06315C;fontColor=#ffffff;shape=mxgraph.c4.person2;align=center;metaEdit=1;points=[[0.5,0,0],[1,0.5,0],[1,0.75,0],[0.75,1,0],[0.5,1,0],[0.25,1,0],[0,0.75,0],[0,0.5,0]];resizable=0;" parent="1" vertex="1">
            <mxGeometry x="1810" y="140" width="200" height="180" as="geometry" />
          </mxCell>
        </object>
        <object placeholders="1" c4Type="Relationship" c4Description="Creates a meeting with another&#xa;user. The attendees can either decline&#xa;or propose to reschedule the meeting." label="&lt;div style=&quot;text-align: left&quot;&gt;&lt;div style=&quot;text-align: center&quot;&gt;&lt;b&gt;%c4Description%&lt;/b&gt;&lt;/div&gt;" id="5E3EmIhC8hp46Ea8LUjL-15">
          <mxCell style="endArrow=blockThin;html=1;fontSize=10;fontColor=#404040;strokeWidth=1;endFill=1;strokeColor=#828282;elbow=vertical;metaEdit=1;endSize=14;startSize=14;jumpStyle=arc;jumpSize=16;rounded=0;edgeStyle=orthogonalEdgeStyle;exitX=0.5;exitY=1;exitDx=0;exitDy=0;exitPerimeter=0;entryX=0.003;entryY=0.449;entryDx=0;entryDy=0;entryPerimeter=0;" parent="1" source="5E3EmIhC8hp46Ea8LUjL-14" edge="1">
            <mxGeometry x="-0.5055" width="240" relative="1" as="geometry">
              <mxPoint x="1860" y="238" as="sourcePoint" />
              <mxPoint x="2120.7199999999993" y="513.8799999999999" as="targetPoint" />
              <Array as="points">
                <mxPoint x="1910" y="514" />
              </Array>
              <mxPoint as="offset" />
            </mxGeometry>
          </mxCell>
        </object>
        <object placeholders="1" c4Name="Platform Administrator" c4Type="Person" c4Description="This user is responsible for the management of the website" label="&lt;font style=&quot;font-size: 16px&quot;&gt;&lt;b&gt;%c4Name%&lt;/b&gt;&lt;/font&gt;&lt;div&gt;[%c4Type%]&lt;/div&gt;&lt;br&gt;&lt;div&gt;&lt;font style=&quot;font-size: 11px&quot;&gt;&lt;font color=&quot;#cccccc&quot;&gt;%c4Description%&lt;/font&gt;&lt;/div&gt;" id="5E3EmIhC8hp46Ea8LUjL-16">
          <mxCell style="html=1;fontSize=11;dashed=0;whiteSpace=wrap;fillColor=#083F75;strokeColor=#06315C;fontColor=#ffffff;shape=mxgraph.c4.person2;align=center;metaEdit=1;points=[[0.5,0,0],[1,0.5,0],[1,0.75,0],[0.75,1,0],[0.5,1,0],[0.25,1,0],[0,0.75,0],[0,0.5,0]];resizable=0;" parent="1" vertex="1">
            <mxGeometry x="2460" y="140" width="200" height="180" as="geometry" />
          </mxCell>
        </object>
        <object placeholders="1" c4Type="Relationship" c4Description="Can create accounts for &#xa;users of the platform" label="&lt;div style=&quot;text-align: left&quot;&gt;&lt;div style=&quot;text-align: center&quot;&gt;&lt;b&gt;%c4Description%&lt;/b&gt;&lt;/div&gt;" id="5E3EmIhC8hp46Ea8LUjL-17">
          <mxCell style="endArrow=blockThin;html=1;fontSize=10;fontColor=#404040;strokeWidth=1;endFill=1;strokeColor=#828282;elbow=vertical;metaEdit=1;endSize=14;startSize=14;jumpStyle=arc;jumpSize=16;rounded=0;edgeStyle=orthogonalEdgeStyle;entryX=1;entryY=0.5;entryDx=0;entryDy=0;entryPerimeter=0;exitX=0.5;exitY=1;exitDx=0;exitDy=0;exitPerimeter=0;" parent="1" source="5E3EmIhC8hp46Ea8LUjL-16" target="5E3EmIhC8hp46Ea8LUjL-22" edge="1">
            <mxGeometry x="-0.5239" width="240" relative="1" as="geometry">
              <mxPoint x="2820" y="360" as="sourcePoint" />
              <mxPoint x="2360" y="520" as="targetPoint" />
              <mxPoint as="offset" />
            </mxGeometry>
          </mxCell>
        </object>
        <mxCell id="5E3EmIhC8hp46Ea8LUjL-18" value="&lt;font style=&quot;font-size: 36px;&quot;&gt;C2&lt;/font&gt;" style="ellipse;whiteSpace=wrap;html=1;aspect=fixed;" parent="1" vertex="1">
          <mxGeometry x="1620" width="80" height="80" as="geometry" />
        </mxCell>
        <object placeholders="1" c4Name="Container diagram for &#xa;tutor booking web platform" c4Type="ContainerScopeBoundary" label="&lt;font style=&quot;font-size: 16px&quot;&gt;&lt;b&gt;&lt;div style=&quot;text-align: left&quot;&gt;%c4Name%&lt;/div&gt;&lt;/b&gt;&lt;/font&gt;&lt;div style=&quot;text-align: left&quot;&gt;[%c4Application%]&lt;/div&gt;" id="5E3EmIhC8hp46Ea8LUjL-19">
          <mxCell style="rounded=1;fontSize=11;whiteSpace=wrap;html=1;dashed=1;arcSize=20;fillColor=none;strokeColor=#666666;fontColor=#333333;labelBackgroundColor=none;align=left;verticalAlign=bottom;labelBorderColor=none;spacingTop=0;spacing=10;dashPattern=8 4;metaEdit=1;rotatable=0;perimeter=rectanglePerimeter;noLabel=0;labelPadding=0;allowArrows=0;connectable=0;expand=0;recursiveResize=0;editable=1;pointerEvents=0;absoluteArcSize=1;points=[[0.25,0,0],[0.5,0,0],[0.75,0,0],[1,0.25,0],[1,0.5,0],[1,0.75,0],[0.75,1,0],[0.5,1,0],[0.25,1,0],[0,0.75,0],[0,0.5,0],[0,0.25,0]];" parent="1" vertex="1">
            <mxGeometry x="2040" y="380" width="390" height="820" as="geometry" />
          </mxCell>
        </object>
        <object placeholders="1" c4Type="Database" c4Container="Container" c4Technology="MySQL" c4Description="Stores the data of users, &#xa;concerts, orders and tickets" label="&lt;font style=&quot;font-size: 16px&quot;&gt;&lt;b&gt;%c4Type%&lt;/b&gt;&lt;/font&gt;&lt;div&gt;[%c4Container%:&amp;nbsp;%c4Technology%]&lt;/div&gt;&lt;br&gt;&lt;div&gt;&lt;font style=&quot;font-size: 11px&quot;&gt;&lt;font color=&quot;#E6E6E6&quot;&gt;%c4Description%&lt;/font&gt;&lt;/div&gt;" id="5E3EmIhC8hp46Ea8LUjL-20">
          <mxCell style="shape=cylinder3;size=15;whiteSpace=wrap;html=1;boundedLbl=1;rounded=0;labelBackgroundColor=none;fillColor=#23A2D9;fontSize=12;fontColor=#ffffff;align=center;strokeColor=#0E7DAD;metaEdit=1;points=[[0.5,0,0],[1,0.25,0],[1,0.5,0],[1,0.75,0],[0.5,1,0],[0,0.75,0],[0,0.5,0],[0,0.25,0]];resizable=0;" parent="1" vertex="1">
            <mxGeometry x="2115" y="940" width="240" height="120" as="geometry" />
          </mxCell>
        </object>
        <object placeholders="1" c4Name="Backend application" c4Type="[Container: Java Spring Boot + REST]" c4Description="Provides all the platform business&#xa;functionality to manipulate the database." label="&lt;font style=&quot;font-size: 16px&quot;&gt;&lt;b&gt;%c4Name%&lt;/b&gt;&lt;/font&gt;&lt;div&gt;[%c4Type%]&lt;/div&gt;&lt;br&gt;&lt;div&gt;&lt;font style=&quot;font-size: 11px&quot;&gt;&lt;font color=&quot;#cccccc&quot;&gt;%c4Description%&lt;/font&gt;&lt;/div&gt;" id="5E3EmIhC8hp46Ea8LUjL-21">
          <mxCell style="rounded=1;whiteSpace=wrap;html=1;labelBackgroundColor=none;fillColor=#1061B0;fontColor=#ffffff;align=center;arcSize=10;strokeColor=#0D5091;metaEdit=1;resizable=0;points=[[0.25,0,0],[0.5,0,0],[0.75,0,0],[1,0.25,0],[1,0.5,0],[1,0.75,0],[0.75,1,0],[0.5,1,0],[0.25,1,0],[0,0.75,0],[0,0.5,0],[0,0.25,0]];" parent="1" vertex="1">
            <mxGeometry x="2115" y="700" width="240" height="120" as="geometry" />
          </mxCell>
        </object>
        <object placeholders="1" c4Name="Single-page application" c4Type="Container: JavaScript and React" c4Description="Provides the booking functionality&#xa;and meetings management to the users&#xa;in their web browsers " label="&lt;font style=&quot;font-size: 16px&quot;&gt;&lt;b&gt;%c4Name%&lt;/b&gt;&lt;/font&gt;&lt;div&gt;[%c4Type%]&lt;/div&gt;&lt;br&gt;&lt;div&gt;&lt;font style=&quot;font-size: 11px&quot;&gt;&lt;font color=&quot;#cccccc&quot;&gt;%c4Description%&lt;/font&gt;&lt;/div&gt;" id="5E3EmIhC8hp46Ea8LUjL-22">
          <mxCell style="rounded=1;whiteSpace=wrap;html=1;labelBackgroundColor=none;fillColor=#1061B0;fontColor=#ffffff;align=center;arcSize=10;strokeColor=#0D5091;metaEdit=1;resizable=0;points=[[0.25,0,0],[0.5,0,0],[0.75,0,0],[1,0.25,0],[1,0.5,0],[1,0.75,0],[0.75,1,0],[0.5,1,0],[0.25,1,0],[0,0.75,0],[0,0.5,0],[0,0.25,0]];" parent="1" vertex="1">
            <mxGeometry x="2115" y="460" width="240" height="120" as="geometry" />
          </mxCell>
        </object>
        <object placeholders="1" c4Type="Relationship" c4Description="Make API calls&#xa;using JSON/HTTP API" label="&lt;div style=&quot;text-align: left&quot;&gt;&lt;div style=&quot;text-align: center&quot;&gt;&lt;b&gt;%c4Description%&lt;/b&gt;&lt;/div&gt;" id="5E3EmIhC8hp46Ea8LUjL-23">
          <mxCell style="endArrow=blockThin;html=1;fontSize=10;fontColor=#404040;strokeWidth=1;endFill=1;strokeColor=#828282;elbow=vertical;metaEdit=1;endSize=14;startSize=14;jumpStyle=arc;jumpSize=16;rounded=0;edgeStyle=orthogonalEdgeStyle;exitX=0.5;exitY=1;exitDx=0;exitDy=0;exitPerimeter=0;entryX=0.5;entryY=0;entryDx=0;entryDy=0;entryPerimeter=0;" parent="1" source="5E3EmIhC8hp46Ea8LUjL-22" target="5E3EmIhC8hp46Ea8LUjL-21" edge="1">
            <mxGeometry width="240" relative="1" as="geometry">
              <mxPoint x="2310" y="890" as="sourcePoint" />
              <mxPoint x="2550" y="890" as="targetPoint" />
            </mxGeometry>
          </mxCell>
        </object>
        <object placeholders="1" c4Type="Relationship" c4Description="Reads from and writes to using SQL" label="&lt;div style=&quot;text-align: left&quot;&gt;&lt;div style=&quot;text-align: center&quot;&gt;&lt;b&gt;%c4Description%&lt;/b&gt;&lt;/div&gt;" id="5E3EmIhC8hp46Ea8LUjL-24">
          <mxCell style="endArrow=blockThin;html=1;fontSize=10;fontColor=#404040;strokeWidth=1;endFill=1;strokeColor=#828282;elbow=vertical;metaEdit=1;endSize=14;startSize=14;jumpStyle=arc;jumpSize=16;rounded=0;edgeStyle=orthogonalEdgeStyle;exitX=0.5;exitY=1;exitDx=0;exitDy=0;exitPerimeter=0;entryX=0.5;entryY=0;entryDx=0;entryDy=0;entryPerimeter=0;" parent="1" source="5E3EmIhC8hp46Ea8LUjL-21" target="5E3EmIhC8hp46Ea8LUjL-20" edge="1">
            <mxGeometry width="240" relative="1" as="geometry">
              <mxPoint x="2310" y="800" as="sourcePoint" />
              <mxPoint x="2550" y="800" as="targetPoint" />
            </mxGeometry>
          </mxCell>
        </object>
        <mxCell id="5E3EmIhC8hp46Ea8LUjL-25" value="&lt;font style=&quot;font-size: 36px;&quot;&gt;C3&lt;br&gt;&lt;/font&gt;" style="ellipse;whiteSpace=wrap;html=1;aspect=fixed;" parent="1" vertex="1">
          <mxGeometry x="3252" y="10" width="80" height="80" as="geometry" />
        </mxCell>
        <object placeholders="1" c4Name="Booking System" c4Type="ContainerScopeBoundary" c4Application="API Application" label="&lt;font style=&quot;font-size: 16px&quot;&gt;&lt;b&gt;&lt;div style=&quot;text-align: left&quot;&gt;%c4Name%&lt;/div&gt;&lt;/b&gt;&lt;/font&gt;&lt;div style=&quot;text-align: left&quot;&gt;[%c4Application%]&lt;/div&gt;" id="5E3EmIhC8hp46Ea8LUjL-26">
          <mxCell style="rounded=1;fontSize=11;whiteSpace=wrap;html=1;dashed=1;arcSize=20;fillColor=none;strokeColor=#666666;fontColor=#333333;labelBackgroundColor=none;align=left;verticalAlign=bottom;labelBorderColor=none;spacingTop=0;spacing=10;dashPattern=8 4;metaEdit=1;rotatable=0;perimeter=rectanglePerimeter;noLabel=0;labelPadding=0;allowArrows=0;connectable=0;expand=0;recursiveResize=0;editable=1;pointerEvents=0;absoluteArcSize=1;points=[[0.25,0,0],[0.5,0,0],[0.75,0,0],[1,0.25,0],[1,0.5,0],[1,0.75,0],[0.75,1,0],[0.5,1,0],[0.25,1,0],[0,0.75,0],[0,0.5,0],[0,0.25,0]];" parent="1" vertex="1">
            <mxGeometry x="3522" y="330" width="1088" height="830" as="geometry" />
          </mxCell>
        </object>
        <object placeholders="1" c4Type="Relationship" id="5E3EmIhC8hp46Ea8LUjL-27">
          <mxCell style="endArrow=blockThin;html=1;fontSize=10;fontColor=#404040;strokeWidth=1;endFill=1;strokeColor=#828282;elbow=vertical;metaEdit=1;endSize=14;startSize=14;jumpStyle=arc;jumpSize=16;rounded=0;edgeStyle=orthogonalEdgeStyle;entryX=0.5;entryY=0;entryDx=0;entryDy=0;entryPerimeter=0;exitX=0.5;exitY=1;exitDx=0;exitDy=0;exitPerimeter=0;" parent="1" source="5E3EmIhC8hp46Ea8LUjL-65" target="5E3EmIhC8hp46Ea8LUjL-38" edge="1">
            <mxGeometry width="240" relative="1" as="geometry">
              <mxPoint x="4242" y="160" as="sourcePoint" />
              <mxPoint x="4062" y="430" as="targetPoint" />
              <Array as="points" />
            </mxGeometry>
          </mxCell>
        </object>
        <mxCell id="5E3EmIhC8hp46Ea8LUjL-28" value="Makes a request for&lt;br&gt;logging into the&amp;nbsp;&lt;br&gt;application to" style="edgeLabel;html=1;align=center;verticalAlign=middle;resizable=0;points=[];" parent="5E3EmIhC8hp46Ea8LUjL-27" vertex="1" connectable="0">
          <mxGeometry x="0.7436" y="1" relative="1" as="geometry">
            <mxPoint x="-1" y="-94" as="offset" />
          </mxGeometry>
        </mxCell>
        <object placeholders="1" c4Type="Relationship" id="5E3EmIhC8hp46Ea8LUjL-29">
          <mxCell style="endArrow=blockThin;html=1;fontSize=10;fontColor=#404040;strokeWidth=1;endFill=1;strokeColor=#828282;elbow=vertical;metaEdit=1;endSize=14;startSize=14;jumpStyle=arc;jumpSize=16;rounded=0;edgeStyle=orthogonalEdgeStyle;entryX=0.5;entryY=0;entryDx=0;entryDy=0;entryPerimeter=0;exitX=0.5;exitY=1;exitDx=0;exitDy=0;exitPerimeter=0;" parent="1" source="5E3EmIhC8hp46Ea8LUjL-65" target="5E3EmIhC8hp46Ea8LUjL-35" edge="1">
            <mxGeometry width="240" relative="1" as="geometry">
              <mxPoint x="4242" y="160" as="sourcePoint" />
              <mxPoint x="4412" y="370" as="targetPoint" />
              <Array as="points">
                <mxPoint x="4062" y="250" />
                <mxPoint x="4412" y="250" />
              </Array>
            </mxGeometry>
          </mxCell>
        </object>
        <mxCell id="5E3EmIhC8hp46Ea8LUjL-30" value="Makes API calls for&lt;br style=&quot;border-color: var(--border-color);&quot;&gt;viewing, creating, and&lt;br&gt;rescheduling to&lt;br style=&quot;border-color: var(--border-color);&quot;&gt;[JSON/HTTP]" style="edgeLabel;html=1;align=center;verticalAlign=middle;resizable=0;points=[];" parent="5E3EmIhC8hp46Ea8LUjL-29" vertex="1" connectable="0">
          <mxGeometry x="0.6687" y="2" relative="1" as="geometry">
            <mxPoint x="-2" y="37" as="offset" />
          </mxGeometry>
        </mxCell>
        <object placeholders="1" c4Name="User controller" c4Type="Component" c4Technology="Spring Rest Controller" c4Description="Allows users to create, delete &#xa;accounts and update their &#xa;account information." label="&lt;font style=&quot;font-size: 16px&quot;&gt;&lt;b&gt;%c4Name%&lt;/b&gt;&lt;/font&gt;&lt;div&gt;[%c4Type%: %c4Technology%]&lt;/div&gt;&lt;br&gt;&lt;div&gt;&lt;font style=&quot;font-size: 11px&quot;&gt;%c4Description%&lt;/font&gt;&lt;/div&gt;" id="5E3EmIhC8hp46Ea8LUjL-33">
          <mxCell style="rounded=1;whiteSpace=wrap;html=1;labelBackgroundColor=none;fillColor=#63BEF2;fontColor=#ffffff;align=center;arcSize=6;strokeColor=#2086C9;metaEdit=1;resizable=0;points=[[0.25,0,0],[0.5,0,0],[0.75,0,0],[1,0.25,0],[1,0.5,0],[1,0.75,0],[0.75,1,0],[0.5,1,0],[0.25,1,0],[0,0.75,0],[0,0.5,0],[0,0.25,0]];" parent="1" vertex="1">
            <mxGeometry x="3592" y="430" width="240" height="120" as="geometry" />
          </mxCell>
        </object>
        <object placeholders="1" c4Name="Booking Controller" c4Type="Component" c4Technology="Spring Rest Controller" c4Description="Allow users to make, view and cancel&#xa;appointments" label="&lt;font style=&quot;font-size: 16px&quot;&gt;&lt;b&gt;%c4Name%&lt;/b&gt;&lt;/font&gt;&lt;div&gt;[%c4Type%: %c4Technology%]&lt;/div&gt;&lt;br&gt;&lt;div&gt;&lt;font style=&quot;font-size: 11px&quot;&gt;%c4Description%&lt;/font&gt;&lt;/div&gt;" id="5E3EmIhC8hp46Ea8LUjL-35">
          <mxCell style="rounded=1;whiteSpace=wrap;html=1;labelBackgroundColor=none;fillColor=#63BEF2;fontColor=#ffffff;align=center;arcSize=6;strokeColor=#2086C9;metaEdit=1;resizable=0;points=[[0.25,0,0],[0.5,0,0],[0.75,0,0],[1,0.25,0],[1,0.5,0],[1,0.75,0],[0.75,1,0],[0.5,1,0],[0.25,1,0],[0,0.75,0],[0,0.5,0],[0,0.25,0]];" parent="1" vertex="1">
            <mxGeometry x="4292" y="430" width="240" height="120" as="geometry" />
          </mxCell>
        </object>
        <object placeholders="1" c4Name="User Services" c4Type="Component" c4Technology="Spring Service" c4Description="Provides functionality related&#xa;to the business logic related &#xa;to users.&#xa;" label="&lt;font style=&quot;font-size: 16px&quot;&gt;&lt;b&gt;%c4Name%&lt;/b&gt;&lt;/font&gt;&lt;div&gt;[%c4Type%: %c4Technology%]&lt;/div&gt;&lt;br&gt;&lt;div&gt;&lt;font style=&quot;font-size: 11px&quot;&gt;%c4Description%&lt;/font&gt;&lt;/div&gt;" id="5E3EmIhC8hp46Ea8LUjL-37">
          <mxCell style="rounded=1;whiteSpace=wrap;html=1;labelBackgroundColor=none;fillColor=#63BEF2;fontColor=#ffffff;align=center;arcSize=6;strokeColor=#2086C9;metaEdit=1;resizable=0;points=[[0.25,0,0],[0.5,0,0],[0.75,0,0],[1,0.25,0],[1,0.5,0],[1,0.75,0],[0.75,1,0],[0.5,1,0],[0.25,1,0],[0,0.75,0],[0,0.5,0],[0,0.25,0]];" parent="1" vertex="1">
            <mxGeometry x="3592" y="650" width="240" height="120" as="geometry" />
          </mxCell>
        </object>
        <object placeholders="1" c4Name="Concert Services" c4Type="Component" c4Technology="Spring Service" c4Description="Provides functionality related&#xa;to the business logic related &#xa;to concerts.&#xa;" label="&lt;font style=&quot;font-size: 16px&quot;&gt;&lt;b&gt;%c4Name%&lt;/b&gt;&lt;/font&gt;&lt;div&gt;[%c4Type%: %c4Technology%]&lt;/div&gt;&lt;br&gt;&lt;div&gt;&lt;font style=&quot;font-size: 11px&quot;&gt;%c4Description%&lt;/font&gt;&lt;/div&gt;" id="5E3EmIhC8hp46Ea8LUjL-38">
          <mxCell style="rounded=1;whiteSpace=wrap;html=1;labelBackgroundColor=none;fillColor=#63BEF2;fontColor=#ffffff;align=center;arcSize=6;strokeColor=#2086C9;metaEdit=1;resizable=0;points=[[0.25,0,0],[0.5,0,0],[0.75,0,0],[1,0.25,0],[1,0.5,0],[1,0.75,0],[0.75,1,0],[0.5,1,0],[0.25,1,0],[0,0.75,0],[0,0.5,0],[0,0.25,0]];" parent="1" vertex="1">
            <mxGeometry x="3942" y="654" width="240" height="120" as="geometry" />
          </mxCell>
        </object>
        <object placeholders="1" c4Name="Booking Services" c4Type="Component" c4Technology="Spring Service" c4Description="Provides functionality related&#xa;to the business logic related &#xa;to bookings." label="&lt;font style=&quot;font-size: 16px&quot;&gt;&lt;b&gt;%c4Name%&lt;/b&gt;&lt;/font&gt;&lt;div&gt;[%c4Type%: %c4Technology%]&lt;/div&gt;&lt;br&gt;&lt;div&gt;&lt;font style=&quot;font-size: 11px&quot;&gt;%c4Description%&lt;/font&gt;&lt;/div&gt;" id="5E3EmIhC8hp46Ea8LUjL-39">
          <mxCell style="rounded=1;whiteSpace=wrap;html=1;labelBackgroundColor=none;fillColor=#63BEF2;fontColor=#ffffff;align=center;arcSize=6;strokeColor=#2086C9;metaEdit=1;resizable=0;points=[[0.25,0,0],[0.5,0,0],[0.75,0,0],[1,0.25,0],[1,0.5,0],[1,0.75,0],[0.75,1,0],[0.5,1,0],[0.25,1,0],[0,0.75,0],[0,0.5,0],[0,0.25,0]];" parent="1" vertex="1">
            <mxGeometry x="4292" y="654" width="240" height="120" as="geometry" />
          </mxCell>
        </object>
        <object placeholders="1" c4Type="Relationship" c4Description="Sends a request to" label="&lt;div style=&quot;text-align: left&quot;&gt;&lt;div style=&quot;text-align: center&quot;&gt;&lt;b&gt;%c4Description%&lt;/b&gt;&lt;/div&gt;" id="5E3EmIhC8hp46Ea8LUjL-41">
          <mxCell style="endArrow=blockThin;html=1;fontSize=10;fontColor=#404040;strokeWidth=1;endFill=1;strokeColor=#828282;elbow=vertical;metaEdit=1;endSize=14;startSize=14;jumpStyle=arc;jumpSize=16;rounded=0;edgeStyle=orthogonalEdgeStyle;exitX=0.5;exitY=1;exitDx=0;exitDy=0;exitPerimeter=0;entryX=0.5;entryY=0;entryDx=0;entryDy=0;entryPerimeter=0;" parent="1" source="5E3EmIhC8hp46Ea8LUjL-33" target="5E3EmIhC8hp46Ea8LUjL-37" edge="1">
            <mxGeometry width="240" relative="1" as="geometry">
              <mxPoint x="4012" y="520" as="sourcePoint" />
              <mxPoint x="4252" y="520" as="targetPoint" />
              <mxPoint y="-1" as="offset" />
            </mxGeometry>
          </mxCell>
        </object>
        <object placeholders="1" c4Type="Relationship" c4Description="Sends a request to" label="&lt;div style=&quot;text-align: left&quot;&gt;&lt;div style=&quot;text-align: center&quot;&gt;&lt;b&gt;%c4Description%&lt;/b&gt;&lt;/div&gt;" id="5E3EmIhC8hp46Ea8LUjL-43">
          <mxCell style="endArrow=blockThin;html=1;fontSize=10;fontColor=#404040;strokeWidth=1;endFill=1;strokeColor=#828282;elbow=vertical;metaEdit=1;endSize=14;startSize=14;jumpStyle=arc;jumpSize=16;rounded=0;edgeStyle=orthogonalEdgeStyle;exitX=0.5;exitY=1;exitDx=0;exitDy=0;exitPerimeter=0;entryX=0.5;entryY=0;entryDx=0;entryDy=0;entryPerimeter=0;" parent="1" source="5E3EmIhC8hp46Ea8LUjL-35" target="5E3EmIhC8hp46Ea8LUjL-39" edge="1">
            <mxGeometry width="240" relative="1" as="geometry">
              <mxPoint x="3732" y="570" as="sourcePoint" />
              <mxPoint x="3732" y="650" as="targetPoint" />
            </mxGeometry>
          </mxCell>
        </object>
        <object placeholders="1" c4Name="User Repository" c4Type="Component" c4Technology="Spring Repository" c4Description="Provides functionality to&#xa;read from and write to&#xa;the database." label="&lt;font style=&quot;font-size: 16px&quot;&gt;&lt;b&gt;%c4Name%&lt;/b&gt;&lt;/font&gt;&lt;div&gt;[%c4Type%: %c4Technology%]&lt;/div&gt;&lt;br&gt;&lt;div&gt;&lt;font style=&quot;font-size: 11px&quot;&gt;%c4Description%&lt;/font&gt;&lt;/div&gt;" id="5E3EmIhC8hp46Ea8LUjL-45">
          <mxCell style="rounded=1;whiteSpace=wrap;html=1;labelBackgroundColor=none;fillColor=#63BEF2;fontColor=#ffffff;align=center;arcSize=6;strokeColor=#2086C9;metaEdit=1;resizable=0;points=[[0.25,0,0],[0.5,0,0],[0.75,0,0],[1,0.25,0],[1,0.5,0],[1,0.75,0],[0.75,1,0],[0.5,1,0],[0.25,1,0],[0,0.75,0],[0,0.5,0],[0,0.25,0]];" parent="1" vertex="1">
            <mxGeometry x="3592" y="870" width="240" height="120" as="geometry" />
          </mxCell>
        </object>
        <object placeholders="1" c4Type="Relationship" c4Description="Sends a request to" label="&lt;div style=&quot;text-align: left&quot;&gt;&lt;div style=&quot;text-align: center&quot;&gt;&lt;b&gt;%c4Description%&lt;/b&gt;&lt;/div&gt;" id="5E3EmIhC8hp46Ea8LUjL-46">
          <mxCell style="endArrow=blockThin;html=1;fontSize=10;fontColor=#404040;strokeWidth=1;endFill=1;strokeColor=#828282;elbow=vertical;metaEdit=1;endSize=14;startSize=14;jumpStyle=arc;jumpSize=16;rounded=0;edgeStyle=orthogonalEdgeStyle;" parent="1" edge="1">
            <mxGeometry width="240" relative="1" as="geometry">
              <mxPoint x="3711" y="770" as="sourcePoint" />
              <mxPoint x="3711" y="870" as="targetPoint" />
            </mxGeometry>
          </mxCell>
        </object>
        <object placeholders="1" c4Name="Booking Repository" c4Type="Component" c4Technology="Spring Repository" c4Description="Provides functionality to&#xa;read from and write to&#xa;the database." label="&lt;font style=&quot;font-size: 16px&quot;&gt;&lt;b&gt;%c4Name%&lt;/b&gt;&lt;/font&gt;&lt;div&gt;[%c4Type%: %c4Technology%]&lt;/div&gt;&lt;br&gt;&lt;div&gt;&lt;font style=&quot;font-size: 11px&quot;&gt;%c4Description%&lt;/font&gt;&lt;/div&gt;" id="5E3EmIhC8hp46Ea8LUjL-48">
          <mxCell style="rounded=1;whiteSpace=wrap;html=1;labelBackgroundColor=none;fillColor=#63BEF2;fontColor=#ffffff;align=center;arcSize=6;strokeColor=#2086C9;metaEdit=1;resizable=0;points=[[0.25,0,0],[0.5,0,0],[0.75,0,0],[1,0.25,0],[1,0.5,0],[1,0.75,0],[0.75,1,0],[0.5,1,0],[0.25,1,0],[0,0.75,0],[0,0.5,0],[0,0.25,0]];" parent="1" vertex="1">
            <mxGeometry x="4292" y="870" width="240" height="120" as="geometry" />
          </mxCell>
        </object>
        <object placeholders="1" c4Type="Relationship" c4Description="Sends a request to" label="&lt;div style=&quot;text-align: left&quot;&gt;&lt;div style=&quot;text-align: center&quot;&gt;&lt;b&gt;%c4Description%&lt;/b&gt;&lt;/div&gt;" id="5E3EmIhC8hp46Ea8LUjL-51">
          <mxCell style="endArrow=blockThin;html=1;fontSize=10;fontColor=#404040;strokeWidth=1;endFill=1;strokeColor=#828282;elbow=vertical;metaEdit=1;endSize=14;startSize=14;jumpStyle=arc;jumpSize=16;rounded=0;edgeStyle=orthogonalEdgeStyle;" parent="1" edge="1">
            <mxGeometry width="240" relative="1" as="geometry">
              <mxPoint x="4411.47" y="774" as="sourcePoint" />
              <mxPoint x="4411" y="870" as="targetPoint" />
            </mxGeometry>
          </mxCell>
        </object>
        <object placeholders="1" c4Type="Database" c4Container="Container" c4Technology="MySQL" c4Description="Stores the data of users, &#xa;concerts, orders and tickets" label="&lt;font style=&quot;font-size: 16px&quot;&gt;&lt;b&gt;%c4Type%&lt;/b&gt;&lt;/font&gt;&lt;div&gt;[%c4Container%:&amp;nbsp;%c4Technology%]&lt;/div&gt;&lt;br&gt;&lt;div&gt;&lt;font style=&quot;font-size: 11px&quot;&gt;&lt;font color=&quot;#E6E6E6&quot;&gt;%c4Description%&lt;/font&gt;&lt;/div&gt;" id="5E3EmIhC8hp46Ea8LUjL-53">
          <mxCell style="shape=cylinder3;size=15;whiteSpace=wrap;html=1;boundedLbl=1;rounded=0;labelBackgroundColor=none;fillColor=#23A2D9;fontSize=12;fontColor=#ffffff;align=center;strokeColor=#0E7DAD;metaEdit=1;points=[[0.5,0,0],[1,0.25,0],[1,0.5,0],[1,0.75,0],[0.5,1,0],[0,0.75,0],[0,0.5,0],[0,0.25,0]];resizable=0;" parent="1" vertex="1">
            <mxGeometry x="3944" y="1276" width="240" height="120" as="geometry" />
          </mxCell>
        </object>
        <object placeholders="1" c4Type="Relationship" id="5E3EmIhC8hp46Ea8LUjL-56">
          <mxCell style="endArrow=blockThin;html=1;fontSize=10;fontColor=#404040;strokeWidth=1;endFill=1;strokeColor=#828282;elbow=vertical;metaEdit=1;endSize=14;startSize=14;jumpStyle=arc;jumpSize=16;rounded=0;edgeStyle=orthogonalEdgeStyle;exitX=0.5;exitY=1;exitDx=0;exitDy=0;exitPerimeter=0;" parent="1" source="5E3EmIhC8hp46Ea8LUjL-48" target="5E3EmIhC8hp46Ea8LUjL-53" edge="1">
            <mxGeometry width="240" relative="1" as="geometry">
              <mxPoint x="4182" y="1030" as="sourcePoint" />
              <mxPoint x="4070" y="1230" as="targetPoint" />
              <Array as="points">
                <mxPoint x="4412" y="1100" />
                <mxPoint x="4066" y="1100" />
              </Array>
            </mxGeometry>
          </mxCell>
        </object>
        <mxCell id="5E3EmIhC8hp46Ea8LUjL-57" value="Saves and retrieves booking&lt;br&gt;information in the database using" style="edgeLabel;html=1;align=center;verticalAlign=middle;resizable=0;points=[];" parent="5E3EmIhC8hp46Ea8LUjL-56" vertex="1" connectable="0">
          <mxGeometry x="-0.7907" y="1" relative="1" as="geometry">
            <mxPoint x="-1" y="-6" as="offset" />
          </mxGeometry>
        </mxCell>
        <object placeholders="1" c4Type="Relationship" id="5E3EmIhC8hp46Ea8LUjL-60">
          <mxCell style="endArrow=blockThin;html=1;fontSize=10;fontColor=#404040;strokeWidth=1;endFill=1;strokeColor=#828282;elbow=vertical;metaEdit=1;endSize=14;startSize=14;jumpStyle=arc;jumpSize=16;rounded=0;edgeStyle=orthogonalEdgeStyle;entryX=0.5;entryY=0;entryDx=0;entryDy=0;entryPerimeter=0;exitX=0.5;exitY=1;exitDx=0;exitDy=0;exitPerimeter=0;" parent="1" source="5E3EmIhC8hp46Ea8LUjL-65" target="5E3EmIhC8hp46Ea8LUjL-33" edge="1">
            <mxGeometry width="240" relative="1" as="geometry">
              <mxPoint x="4242" y="160" as="sourcePoint" />
              <mxPoint x="4442" y="470" as="targetPoint" />
              <Array as="points">
                <mxPoint x="4062" y="250" />
                <mxPoint x="3712" y="250" />
              </Array>
            </mxGeometry>
          </mxCell>
        </object>
        <mxCell id="5E3EmIhC8hp46Ea8LUjL-61" value="Makes API calls for&lt;br&gt;creating, deleting and&lt;br style=&quot;border-color: var(--border-color);&quot;&gt;updating to&lt;br style=&quot;border-color: var(--border-color);&quot;&gt;[JSON/HTTP]" style="edgeLabel;html=1;align=center;verticalAlign=middle;resizable=0;points=[];" parent="5E3EmIhC8hp46Ea8LUjL-60" vertex="1" connectable="0">
          <mxGeometry x="0.8441" y="-3" relative="1" as="geometry">
            <mxPoint y="-16" as="offset" />
          </mxGeometry>
        </mxCell>
        <mxCell id="5E3EmIhC8hp46Ea8LUjL-64" value="&lt;font style=&quot;font-size: 48px;&quot;&gt;Backend&lt;/font&gt;" style="text;html=1;strokeColor=none;fillColor=none;align=center;verticalAlign=middle;whiteSpace=wrap;rounded=0;" parent="1" vertex="1">
          <mxGeometry x="3362" y="22.5" width="210" height="55" as="geometry" />
        </mxCell>
        <object placeholders="1" c4Name="Backend application" c4Type="[Container: Java Spring Boot + REST]" c4Description="Provides all the platform business&#xa;functionality to manipulate the database." label="&lt;font style=&quot;font-size: 16px&quot;&gt;&lt;b&gt;%c4Name%&lt;/b&gt;&lt;/font&gt;&lt;div&gt;[%c4Type%]&lt;/div&gt;&lt;br&gt;&lt;div&gt;&lt;font style=&quot;font-size: 11px&quot;&gt;&lt;font color=&quot;#cccccc&quot;&gt;%c4Description%&lt;/font&gt;&lt;/div&gt;" id="5E3EmIhC8hp46Ea8LUjL-65">
          <mxCell style="rounded=1;whiteSpace=wrap;html=1;labelBackgroundColor=none;fillColor=#1061B0;fontColor=#ffffff;align=center;arcSize=10;strokeColor=#0D5091;metaEdit=1;resizable=0;points=[[0.25,0,0],[0.5,0,0],[0.75,0,0],[1,0.25,0],[1,0.5,0],[1,0.75,0],[0.75,1,0],[0.5,1,0],[0.25,1,0],[0,0.75,0],[0,0.5,0],[0,0.25,0]];" parent="1" vertex="1">
            <mxGeometry x="3942" y="70" width="240" height="120" as="geometry" />
          </mxCell>
        </object>
        <object placeholders="1" c4Type="Relationship" c4Description="Saves and updates user&#xa;information in the database using" label="&lt;div style=&quot;text-align: left&quot;&gt;&lt;div style=&quot;text-align: center&quot;&gt;&lt;b&gt;%c4Description%&lt;/b&gt;&lt;/div&gt;" id="5E3EmIhC8hp46Ea8LUjL-66">
          <mxCell style="endArrow=blockThin;html=1;fontSize=10;fontColor=#404040;strokeWidth=1;endFill=1;strokeColor=#828282;elbow=vertical;metaEdit=1;endSize=14;startSize=14;jumpStyle=arc;jumpSize=16;rounded=0;edgeStyle=orthogonalEdgeStyle;exitX=0.5;exitY=1;exitDx=0;exitDy=0;exitPerimeter=0;entryX=0.5;entryY=0;entryDx=0;entryDy=0;entryPerimeter=0;" parent="1" edge="1">
            <mxGeometry x="-0.8119" width="240" relative="1" as="geometry">
              <mxPoint x="3714" y="990" as="sourcePoint" />
              <mxPoint x="4066" y="1276" as="targetPoint" />
              <Array as="points">
                <mxPoint x="3714" y="1100" />
                <mxPoint x="4066" y="1100" />
              </Array>
              <mxPoint as="offset" />
            </mxGeometry>
          </mxCell>
        </object>
        <object placeholders="1" c4Type="Relationship" id="5E3EmIhC8hp46Ea8LUjL-71">
          <mxCell style="endArrow=blockThin;html=1;fontSize=10;fontColor=#404040;strokeWidth=1;endFill=1;strokeColor=#828282;elbow=vertical;metaEdit=1;endSize=14;startSize=14;jumpStyle=arc;jumpSize=16;rounded=0;edgeStyle=orthogonalEdgeStyle;exitX=0.5;exitY=1;exitDx=0;exitDy=0;exitPerimeter=0;entryX=0.5;entryY=0;entryDx=0;entryDy=0;entryPerimeter=0;" parent="1" edge="1">
            <mxGeometry width="240" relative="1" as="geometry">
              <mxPoint x="4063" y="774" as="sourcePoint" />
              <mxPoint x="4065" y="1275.9999999999998" as="targetPoint" />
              <Array as="points">
                <mxPoint x="4065" y="774" />
              </Array>
            </mxGeometry>
          </mxCell>
        </object>
        <mxCell id="5E3EmIhC8hp46Ea8LUjL-72" value="Compares the entered credentials from the request &lt;br&gt;with the saved accounts in the database and&lt;br&gt;retrieves information from the matching&lt;br&gt;one using" style="edgeLabel;html=1;align=center;verticalAlign=middle;resizable=0;points=[];" parent="5E3EmIhC8hp46Ea8LUjL-71" vertex="1" connectable="0">
          <mxGeometry x="-0.4432" y="1" relative="1" as="geometry">
            <mxPoint y="18" as="offset" />
          </mxGeometry>
        </mxCell>
        <mxCell id="k4_idVnGkL1J9dSwy2s4-1" value="&lt;font style=&quot;font-size: 36px;&quot;&gt;C4&lt;br&gt;&lt;/font&gt;" style="ellipse;whiteSpace=wrap;html=1;aspect=fixed;" vertex="1" parent="1">
          <mxGeometry x="5170" y="10" width="80" height="80" as="geometry" />
        </mxCell>
        <mxCell id="k4_idVnGkL1J9dSwy2s4-5" value="&lt;b&gt;User&lt;/b&gt;&lt;br&gt;{abstract}" style="swimlane;fontStyle=0;align=center;verticalAlign=top;childLayout=stackLayout;horizontal=1;startSize=40;horizontalStack=0;resizeParent=1;resizeParentMax=0;resizeLast=0;collapsible=0;marginBottom=0;html=1;whiteSpace=wrap;" vertex="1" parent="1">
          <mxGeometry x="5440" y="230" width="190" height="220" as="geometry" />
        </mxCell>
        <mxCell id="k4_idVnGkL1J9dSwy2s4-6" value="id: Long" style="text;html=1;strokeColor=none;fillColor=none;align=left;verticalAlign=middle;spacingLeft=4;spacingRight=4;overflow=hidden;rotatable=0;points=[[0,0.5],[1,0.5]];portConstraint=eastwest;whiteSpace=wrap;" vertex="1" parent="k4_idVnGkL1J9dSwy2s4-5">
          <mxGeometry y="40" width="190" height="30" as="geometry" />
        </mxCell>
        <mxCell id="k4_idVnGkL1J9dSwy2s4-13" value="name: String" style="text;html=1;strokeColor=none;fillColor=none;align=left;verticalAlign=middle;spacingLeft=4;spacingRight=4;overflow=hidden;rotatable=0;points=[[0,0.5],[1,0.5]];portConstraint=eastwest;whiteSpace=wrap;" vertex="1" parent="k4_idVnGkL1J9dSwy2s4-5">
          <mxGeometry y="70" width="190" height="30" as="geometry" />
        </mxCell>
        <mxCell id="k4_idVnGkL1J9dSwy2s4-14" value="email: String" style="text;html=1;strokeColor=none;fillColor=none;align=left;verticalAlign=middle;spacingLeft=4;spacingRight=4;overflow=hidden;rotatable=0;points=[[0,0.5],[1,0.5]];portConstraint=eastwest;whiteSpace=wrap;" vertex="1" parent="k4_idVnGkL1J9dSwy2s4-5">
          <mxGeometry y="100" width="190" height="30" as="geometry" />
        </mxCell>
        <mxCell id="k4_idVnGkL1J9dSwy2s4-15" value="password: String" style="text;html=1;strokeColor=none;fillColor=none;align=left;verticalAlign=middle;spacingLeft=4;spacingRight=4;overflow=hidden;rotatable=0;points=[[0,0.5],[1,0.5]];portConstraint=eastwest;whiteSpace=wrap;" vertex="1" parent="k4_idVnGkL1J9dSwy2s4-5">
          <mxGeometry y="130" width="190" height="30" as="geometry" />
        </mxCell>
        <mxCell id="k4_idVnGkL1J9dSwy2s4-16" value="profilePicURL: String" style="text;html=1;strokeColor=none;fillColor=none;align=left;verticalAlign=middle;spacingLeft=4;spacingRight=4;overflow=hidden;rotatable=0;points=[[0,0.5],[1,0.5]];portConstraint=eastwest;whiteSpace=wrap;" vertex="1" parent="k4_idVnGkL1J9dSwy2s4-5">
          <mxGeometry y="160" width="190" height="30" as="geometry" />
        </mxCell>
        <mxCell id="k4_idVnGkL1J9dSwy2s4-17" value="role: Role" style="text;html=1;strokeColor=none;fillColor=none;align=left;verticalAlign=middle;spacingLeft=4;spacingRight=4;overflow=hidden;rotatable=0;points=[[0,0.5],[1,0.5]];portConstraint=eastwest;whiteSpace=wrap;" vertex="1" parent="k4_idVnGkL1J9dSwy2s4-5">
          <mxGeometry y="190" width="190" height="30" as="geometry" />
        </mxCell>
        <mxCell id="k4_idVnGkL1J9dSwy2s4-18" value="&lt;b&gt;Role&lt;/b&gt;&lt;br&gt;&amp;lt;&amp;lt;enumeration&amp;gt;&amp;gt;" style="swimlane;fontStyle=0;childLayout=stackLayout;horizontal=1;startSize=40;horizontalStack=0;resizeParent=1;resizeParentMax=0;resizeLast=0;collapsible=1;marginBottom=0;whiteSpace=wrap;html=1;" vertex="1" parent="1">
          <mxGeometry x="5440" y="-20" width="190" height="130" as="geometry" />
        </mxCell>
        <mxCell id="k4_idVnGkL1J9dSwy2s4-19" value="0: Student" style="text;strokeColor=none;fillColor=none;align=left;verticalAlign=middle;spacingLeft=4;spacingRight=4;overflow=hidden;points=[[0,0.5],[1,0.5]];portConstraint=eastwest;rotatable=0;whiteSpace=wrap;html=1;" vertex="1" parent="k4_idVnGkL1J9dSwy2s4-18">
          <mxGeometry y="40" width="190" height="30" as="geometry" />
        </mxCell>
        <mxCell id="k4_idVnGkL1J9dSwy2s4-20" value="1: Tutor" style="text;strokeColor=none;fillColor=none;align=left;verticalAlign=middle;spacingLeft=4;spacingRight=4;overflow=hidden;points=[[0,0.5],[1,0.5]];portConstraint=eastwest;rotatable=0;whiteSpace=wrap;html=1;" vertex="1" parent="k4_idVnGkL1J9dSwy2s4-18">
          <mxGeometry y="70" width="190" height="30" as="geometry" />
        </mxCell>
        <mxCell id="k4_idVnGkL1J9dSwy2s4-21" value="2: Admin" style="text;strokeColor=none;fillColor=none;align=left;verticalAlign=middle;spacingLeft=4;spacingRight=4;overflow=hidden;points=[[0,0.5],[1,0.5]];portConstraint=eastwest;rotatable=0;whiteSpace=wrap;html=1;" vertex="1" parent="k4_idVnGkL1J9dSwy2s4-18">
          <mxGeometry y="100" width="190" height="30" as="geometry" />
        </mxCell>
        <mxCell id="k4_idVnGkL1J9dSwy2s4-48" style="edgeStyle=orthogonalEdgeStyle;rounded=0;orthogonalLoop=1;jettySize=auto;html=1;entryX=0;entryY=0.5;entryDx=0;entryDy=0;" edge="1" parent="1" source="k4_idVnGkL1J9dSwy2s4-31" target="k4_idVnGkL1J9dSwy2s4-14">
          <mxGeometry relative="1" as="geometry" />
        </mxCell>
        <mxCell id="k4_idVnGkL1J9dSwy2s4-31" value="&lt;b&gt;Tutor&lt;/b&gt;" style="swimlane;fontStyle=0;align=center;verticalAlign=top;childLayout=stackLayout;horizontal=1;startSize=40;horizontalStack=0;resizeParent=1;resizeParentMax=0;resizeLast=0;collapsible=0;marginBottom=0;html=1;whiteSpace=wrap;" vertex="1" parent="1">
          <mxGeometry x="5250" y="480" width="190" height="80" as="geometry" />
        </mxCell>
        <mxCell id="k4_idVnGkL1J9dSwy2s4-32" value="getRole(): Role" style="text;html=1;strokeColor=none;fillColor=none;align=left;verticalAlign=middle;spacingLeft=4;spacingRight=4;overflow=hidden;rotatable=0;points=[[0,0.5],[1,0.5]];portConstraint=eastwest;whiteSpace=wrap;" vertex="1" parent="k4_idVnGkL1J9dSwy2s4-31">
          <mxGeometry y="40" width="190" height="40" as="geometry" />
        </mxCell>
        <mxCell id="k4_idVnGkL1J9dSwy2s4-47" style="edgeStyle=orthogonalEdgeStyle;rounded=0;orthogonalLoop=1;jettySize=auto;html=1;entryX=1;entryY=0.5;entryDx=0;entryDy=0;" edge="1" parent="1" source="k4_idVnGkL1J9dSwy2s4-38" target="k4_idVnGkL1J9dSwy2s4-14">
          <mxGeometry relative="1" as="geometry" />
        </mxCell>
        <mxCell id="k4_idVnGkL1J9dSwy2s4-38" value="&lt;b&gt;Student&lt;/b&gt;" style="swimlane;fontStyle=0;align=center;verticalAlign=top;childLayout=stackLayout;horizontal=1;startSize=40;horizontalStack=0;resizeParent=1;resizeParentMax=0;resizeLast=0;collapsible=0;marginBottom=0;html=1;whiteSpace=wrap;" vertex="1" parent="1">
          <mxGeometry x="5640" y="480" width="190" height="100" as="geometry" />
        </mxCell>
        <mxCell id="k4_idVnGkL1J9dSwy2s4-39" value="PCN: long" style="text;html=1;strokeColor=none;fillColor=none;align=left;verticalAlign=middle;spacingLeft=4;spacingRight=4;overflow=hidden;rotatable=0;points=[[0,0.5],[1,0.5]];portConstraint=eastwest;whiteSpace=wrap;" vertex="1" parent="k4_idVnGkL1J9dSwy2s4-38">
          <mxGeometry y="40" width="190" height="30" as="geometry" />
        </mxCell>
        <mxCell id="k4_idVnGkL1J9dSwy2s4-44" value="getRole(): Role" style="text;html=1;strokeColor=none;fillColor=none;align=left;verticalAlign=middle;spacingLeft=4;spacingRight=4;overflow=hidden;rotatable=0;points=[[0,0.5],[1,0.5]];portConstraint=eastwest;whiteSpace=wrap;" vertex="1" parent="k4_idVnGkL1J9dSwy2s4-38">
          <mxGeometry y="70" width="190" height="30" as="geometry" />
        </mxCell>
        <mxCell id="k4_idVnGkL1J9dSwy2s4-50" value="&lt;b&gt;Booking&lt;/b&gt;" style="swimlane;fontStyle=0;align=center;verticalAlign=top;childLayout=stackLayout;horizontal=1;startSize=30;horizontalStack=0;resizeParent=1;resizeParentMax=0;resizeLast=0;collapsible=0;marginBottom=0;html=1;whiteSpace=wrap;" vertex="1" parent="1">
          <mxGeometry x="5440" y="690" width="190" height="270" as="geometry" />
        </mxCell>
        <mxCell id="k4_idVnGkL1J9dSwy2s4-51" value="id: Long" style="text;html=1;strokeColor=none;fillColor=none;align=left;verticalAlign=middle;spacingLeft=4;spacingRight=4;overflow=hidden;rotatable=0;points=[[0,0.5],[1,0.5]];portConstraint=eastwest;whiteSpace=wrap;" vertex="1" parent="k4_idVnGkL1J9dSwy2s4-50">
          <mxGeometry y="30" width="190" height="30" as="geometry" />
        </mxCell>
        <mxCell id="k4_idVnGkL1J9dSwy2s4-52" value="date: Date" style="text;html=1;strokeColor=none;fillColor=none;align=left;verticalAlign=middle;spacingLeft=4;spacingRight=4;overflow=hidden;rotatable=0;points=[[0,0.5],[1,0.5]];portConstraint=eastwest;whiteSpace=wrap;" vertex="1" parent="k4_idVnGkL1J9dSwy2s4-50">
          <mxGeometry y="60" width="190" height="30" as="geometry" />
        </mxCell>
        <mxCell id="k4_idVnGkL1J9dSwy2s4-53" value="startTime: Integer" style="text;html=1;strokeColor=none;fillColor=none;align=left;verticalAlign=middle;spacingLeft=4;spacingRight=4;overflow=hidden;rotatable=0;points=[[0,0.5],[1,0.5]];portConstraint=eastwest;whiteSpace=wrap;" vertex="1" parent="k4_idVnGkL1J9dSwy2s4-50">
          <mxGeometry y="90" width="190" height="30" as="geometry" />
        </mxCell>
        <mxCell id="k4_idVnGkL1J9dSwy2s4-54" value="endTime: Integer" style="text;html=1;strokeColor=none;fillColor=none;align=left;verticalAlign=middle;spacingLeft=4;spacingRight=4;overflow=hidden;rotatable=0;points=[[0,0.5],[1,0.5]];portConstraint=eastwest;whiteSpace=wrap;" vertex="1" parent="k4_idVnGkL1J9dSwy2s4-50">
          <mxGeometry y="120" width="190" height="30" as="geometry" />
        </mxCell>
        <mxCell id="k4_idVnGkL1J9dSwy2s4-55" value="description: String" style="text;html=1;strokeColor=none;fillColor=none;align=left;verticalAlign=middle;spacingLeft=4;spacingRight=4;overflow=hidden;rotatable=0;points=[[0,0.5],[1,0.5]];portConstraint=eastwest;whiteSpace=wrap;" vertex="1" parent="k4_idVnGkL1J9dSwy2s4-50">
          <mxGeometry y="150" width="190" height="30" as="geometry" />
        </mxCell>
        <mxCell id="k4_idVnGkL1J9dSwy2s4-56" value="student: User" style="text;html=1;strokeColor=none;fillColor=none;align=left;verticalAlign=middle;spacingLeft=4;spacingRight=4;overflow=hidden;rotatable=0;points=[[0,0.5],[1,0.5]];portConstraint=eastwest;whiteSpace=wrap;" vertex="1" parent="k4_idVnGkL1J9dSwy2s4-50">
          <mxGeometry y="180" width="190" height="30" as="geometry" />
        </mxCell>
        <mxCell id="k4_idVnGkL1J9dSwy2s4-58" value="tutor: User" style="text;html=1;strokeColor=none;fillColor=none;align=left;verticalAlign=middle;spacingLeft=4;spacingRight=4;overflow=hidden;rotatable=0;points=[[0,0.5],[1,0.5]];portConstraint=eastwest;whiteSpace=wrap;" vertex="1" parent="k4_idVnGkL1J9dSwy2s4-50">
          <mxGeometry y="210" width="190" height="30" as="geometry" />
        </mxCell>
        <mxCell id="k4_idVnGkL1J9dSwy2s4-59" value="state: State" style="text;html=1;strokeColor=none;fillColor=none;align=left;verticalAlign=middle;spacingLeft=4;spacingRight=4;overflow=hidden;rotatable=0;points=[[0,0.5],[1,0.5]];portConstraint=eastwest;whiteSpace=wrap;" vertex="1" parent="k4_idVnGkL1J9dSwy2s4-50">
          <mxGeometry y="240" width="190" height="30" as="geometry" />
        </mxCell>
        <mxCell id="k4_idVnGkL1J9dSwy2s4-60" value="" style="endArrow=open;html=1;rounded=0;align=center;verticalAlign=bottom;dashed=1;endFill=0;labelBackgroundColor=none;entryX=0.495;entryY=1;entryDx=0;entryDy=0;entryPerimeter=0;exitX=0.5;exitY=0;exitDx=0;exitDy=0;" edge="1" parent="1" source="k4_idVnGkL1J9dSwy2s4-5" target="k4_idVnGkL1J9dSwy2s4-21">
          <mxGeometry relative="1" as="geometry">
            <mxPoint x="5280" y="420" as="sourcePoint" />
            <mxPoint x="5440" y="420" as="targetPoint" />
          </mxGeometry>
        </mxCell>
        <mxCell id="k4_idVnGkL1J9dSwy2s4-61" value="" style="resizable=0;html=1;align=center;verticalAlign=top;labelBackgroundColor=none;" connectable="0" vertex="1" parent="k4_idVnGkL1J9dSwy2s4-60">
          <mxGeometry relative="1" as="geometry" />
        </mxCell>
        <mxCell id="k4_idVnGkL1J9dSwy2s4-62" value="" style="endArrow=open;html=1;rounded=0;align=center;verticalAlign=bottom;dashed=1;endFill=0;labelBackgroundColor=none;exitX=0.5;exitY=0;exitDx=0;exitDy=0;" edge="1" parent="1" source="k4_idVnGkL1J9dSwy2s4-50">
          <mxGeometry relative="1" as="geometry">
            <mxPoint x="5535.5" y="570" as="sourcePoint" />
            <mxPoint x="5535" y="450" as="targetPoint" />
          </mxGeometry>
        </mxCell>
        <mxCell id="k4_idVnGkL1J9dSwy2s4-63" value="" style="resizable=0;html=1;align=center;verticalAlign=top;labelBackgroundColor=none;" connectable="0" vertex="1" parent="k4_idVnGkL1J9dSwy2s4-62">
          <mxGeometry relative="1" as="geometry" />
        </mxCell>
        <mxCell id="k4_idVnGkL1J9dSwy2s4-64" value="&lt;b&gt;State&lt;/b&gt;&lt;br&gt;&amp;lt;&amp;lt;enumeration&amp;gt;&amp;gt;" style="swimlane;fontStyle=0;childLayout=stackLayout;horizontal=1;startSize=40;horizontalStack=0;resizeParent=1;resizeParentMax=0;resizeLast=0;collapsible=1;marginBottom=0;whiteSpace=wrap;html=1;" vertex="1" parent="1">
          <mxGeometry x="5820" y="690" width="210" height="280" as="geometry" />
        </mxCell>
        <mxCell id="k4_idVnGkL1J9dSwy2s4-65" value="0: Requested" style="text;strokeColor=none;fillColor=none;align=left;verticalAlign=middle;spacingLeft=4;spacingRight=4;overflow=hidden;points=[[0,0.5],[1,0.5]];portConstraint=eastwest;rotatable=0;whiteSpace=wrap;html=1;" vertex="1" parent="k4_idVnGkL1J9dSwy2s4-64">
          <mxGeometry y="40" width="210" height="30" as="geometry" />
        </mxCell>
        <mxCell id="k4_idVnGkL1J9dSwy2s4-66" value="1: Scheduled" style="text;strokeColor=none;fillColor=none;align=left;verticalAlign=middle;spacingLeft=4;spacingRight=4;overflow=hidden;points=[[0,0.5],[1,0.5]];portConstraint=eastwest;rotatable=0;whiteSpace=wrap;html=1;" vertex="1" parent="k4_idVnGkL1J9dSwy2s4-64">
          <mxGeometry y="70" width="210" height="30" as="geometry" />
        </mxCell>
        <mxCell id="k4_idVnGkL1J9dSwy2s4-67" value="2: Cancelled" style="text;strokeColor=none;fillColor=none;align=left;verticalAlign=middle;spacingLeft=4;spacingRight=4;overflow=hidden;points=[[0,0.5],[1,0.5]];portConstraint=eastwest;rotatable=0;whiteSpace=wrap;html=1;" vertex="1" parent="k4_idVnGkL1J9dSwy2s4-64">
          <mxGeometry y="100" width="210" height="30" as="geometry" />
        </mxCell>
        <mxCell id="k4_idVnGkL1J9dSwy2s4-70" value="3: Missed" style="text;strokeColor=none;fillColor=none;align=left;verticalAlign=middle;spacingLeft=4;spacingRight=4;overflow=hidden;points=[[0,0.5],[1,0.5]];portConstraint=eastwest;rotatable=0;whiteSpace=wrap;html=1;" vertex="1" parent="k4_idVnGkL1J9dSwy2s4-64">
          <mxGeometry y="130" width="210" height="30" as="geometry" />
        </mxCell>
        <mxCell id="k4_idVnGkL1J9dSwy2s4-71" value="4: Finished" style="text;strokeColor=none;fillColor=none;align=left;verticalAlign=middle;spacingLeft=4;spacingRight=4;overflow=hidden;points=[[0,0.5],[1,0.5]];portConstraint=eastwest;rotatable=0;whiteSpace=wrap;html=1;" vertex="1" parent="k4_idVnGkL1J9dSwy2s4-64">
          <mxGeometry y="160" width="210" height="30" as="geometry" />
        </mxCell>
        <mxCell id="k4_idVnGkL1J9dSwy2s4-72" value="5:&amp;nbsp;Tutor_Reschedule_Requested" style="text;strokeColor=none;fillColor=none;align=left;verticalAlign=middle;spacingLeft=4;spacingRight=4;overflow=hidden;points=[[0,0.5],[1,0.5]];portConstraint=eastwest;rotatable=0;whiteSpace=wrap;html=1;" vertex="1" parent="k4_idVnGkL1J9dSwy2s4-64">
          <mxGeometry y="190" width="210" height="30" as="geometry" />
        </mxCell>
        <mxCell id="k4_idVnGkL1J9dSwy2s4-73" value="6:&amp;nbsp;Student_Reschedule_Requested" style="text;strokeColor=none;fillColor=none;align=left;verticalAlign=middle;spacingLeft=4;spacingRight=4;overflow=hidden;points=[[0,0.5],[1,0.5]];portConstraint=eastwest;rotatable=0;whiteSpace=wrap;html=1;" vertex="1" parent="k4_idVnGkL1J9dSwy2s4-64">
          <mxGeometry y="220" width="210" height="30" as="geometry" />
        </mxCell>
        <mxCell id="k4_idVnGkL1J9dSwy2s4-74" value="7: Rescheduled" style="text;strokeColor=none;fillColor=none;align=left;verticalAlign=middle;spacingLeft=4;spacingRight=4;overflow=hidden;points=[[0,0.5],[1,0.5]];portConstraint=eastwest;rotatable=0;whiteSpace=wrap;html=1;" vertex="1" parent="k4_idVnGkL1J9dSwy2s4-64">
          <mxGeometry y="250" width="210" height="30" as="geometry" />
        </mxCell>
        <mxCell id="k4_idVnGkL1J9dSwy2s4-68" value="" style="endArrow=open;html=1;rounded=0;align=center;verticalAlign=bottom;dashed=1;endFill=0;labelBackgroundColor=none;exitX=1;exitY=0.147;exitDx=0;exitDy=0;exitPerimeter=0;entryX=-0.005;entryY=0.833;entryDx=0;entryDy=0;entryPerimeter=0;" edge="1" parent="1" source="k4_idVnGkL1J9dSwy2s4-55" target="k4_idVnGkL1J9dSwy2s4-70">
          <mxGeometry relative="1" as="geometry">
            <mxPoint x="5720" y="850" as="sourcePoint" />
            <mxPoint x="5880" y="850" as="targetPoint" />
          </mxGeometry>
        </mxCell>
        <mxCell id="k4_idVnGkL1J9dSwy2s4-69" value="" style="resizable=0;html=1;align=center;verticalAlign=top;labelBackgroundColor=none;" connectable="0" vertex="1" parent="k4_idVnGkL1J9dSwy2s4-68">
          <mxGeometry relative="1" as="geometry" />
        </mxCell>
        <mxCell id="k4_idVnGkL1J9dSwy2s4-75" value="&lt;b&gt;Availability&lt;/b&gt;" style="swimlane;fontStyle=0;align=center;verticalAlign=top;childLayout=stackLayout;horizontal=1;startSize=40;horizontalStack=0;resizeParent=1;resizeParentMax=0;resizeLast=0;collapsible=0;marginBottom=0;html=1;whiteSpace=wrap;" vertex="1" parent="1">
          <mxGeometry x="4940" y="465" width="190" height="130" as="geometry" />
        </mxCell>
        <mxCell id="k4_idVnGkL1J9dSwy2s4-76" value="date: Date" style="text;html=1;strokeColor=none;fillColor=none;align=left;verticalAlign=middle;spacingLeft=4;spacingRight=4;overflow=hidden;rotatable=0;points=[[0,0.5],[1,0.5]];portConstraint=eastwest;whiteSpace=wrap;" vertex="1" parent="k4_idVnGkL1J9dSwy2s4-75">
          <mxGeometry y="40" width="190" height="30" as="geometry" />
        </mxCell>
        <mxCell id="k4_idVnGkL1J9dSwy2s4-77" value="startTime: int" style="text;html=1;strokeColor=none;fillColor=none;align=left;verticalAlign=middle;spacingLeft=4;spacingRight=4;overflow=hidden;rotatable=0;points=[[0,0.5],[1,0.5]];portConstraint=eastwest;whiteSpace=wrap;" vertex="1" parent="k4_idVnGkL1J9dSwy2s4-75">
          <mxGeometry y="70" width="190" height="30" as="geometry" />
        </mxCell>
        <mxCell id="k4_idVnGkL1J9dSwy2s4-78" value="entTime: int" style="text;html=1;strokeColor=none;fillColor=none;align=left;verticalAlign=middle;spacingLeft=4;spacingRight=4;overflow=hidden;rotatable=0;points=[[0,0.5],[1,0.5]];portConstraint=eastwest;whiteSpace=wrap;" vertex="1" parent="k4_idVnGkL1J9dSwy2s4-75">
          <mxGeometry y="100" width="190" height="30" as="geometry" />
        </mxCell>
        <mxCell id="k4_idVnGkL1J9dSwy2s4-79" value="" style="endArrow=none;html=1;rounded=0;" edge="1" parent="1">
          <mxGeometry width="50" height="50" relative="1" as="geometry">
            <mxPoint x="5320" y="1520" as="sourcePoint" />
            <mxPoint x="6990" y="1520" as="targetPoint" />
          </mxGeometry>
        </mxCell>
        <mxCell id="k4_idVnGkL1J9dSwy2s4-80" value="" style="endArrow=none;html=1;rounded=0;" edge="1" parent="1">
          <mxGeometry width="50" height="50" relative="1" as="geometry">
            <mxPoint x="5306" y="2400" as="sourcePoint" />
            <mxPoint x="6980" y="2400" as="targetPoint" />
          </mxGeometry>
        </mxCell>
        <mxCell id="k4_idVnGkL1J9dSwy2s4-81" value="" style="endArrow=none;html=1;rounded=0;" edge="1" parent="1">
          <mxGeometry width="50" height="50" relative="1" as="geometry">
            <mxPoint x="5316" y="3300" as="sourcePoint" />
            <mxPoint x="6960" y="3300" as="targetPoint" />
          </mxGeometry>
        </mxCell>
        <mxCell id="k4_idVnGkL1J9dSwy2s4-82" value="" style="endArrow=none;html=1;rounded=0;" edge="1" parent="1">
          <mxGeometry width="50" height="50" relative="1" as="geometry">
            <mxPoint x="5316" y="3750" as="sourcePoint" />
            <mxPoint x="6970" y="3750" as="targetPoint" />
          </mxGeometry>
        </mxCell>
        <mxCell id="k4_idVnGkL1J9dSwy2s4-83" value="&lt;font style=&quot;font-size: 48px;&quot;&gt;Controller Layer&lt;/font&gt;" style="text;html=1;strokeColor=none;fillColor=none;align=center;verticalAlign=middle;whiteSpace=wrap;rounded=0;" vertex="1" parent="1">
          <mxGeometry x="5330" y="1935" width="410" height="30" as="geometry" />
        </mxCell>
        <mxCell id="k4_idVnGkL1J9dSwy2s4-84" value="&lt;span style=&quot;font-size: 48px;&quot;&gt;Business Layer&lt;/span&gt;" style="text;html=1;strokeColor=none;fillColor=none;align=center;verticalAlign=middle;whiteSpace=wrap;rounded=0;" vertex="1" parent="1">
          <mxGeometry x="5330" y="2815" width="410" height="30" as="geometry" />
        </mxCell>
        <mxCell id="k4_idVnGkL1J9dSwy2s4-85" value="&lt;font style=&quot;font-size: 48px;&quot;&gt;Database Layer&lt;/font&gt;" style="text;html=1;strokeColor=none;fillColor=none;align=center;verticalAlign=middle;whiteSpace=wrap;rounded=0;" vertex="1" parent="1">
          <mxGeometry x="5330" y="3507" width="410" height="30" as="geometry" />
        </mxCell>
        <mxCell id="k4_idVnGkL1J9dSwy2s4-86" value="&lt;b&gt;BookingController&lt;/b&gt;" style="swimlane;fontStyle=0;align=center;verticalAlign=top;childLayout=stackLayout;horizontal=1;startSize=30;horizontalStack=0;resizeParent=1;resizeParentMax=0;resizeLast=0;collapsible=0;marginBottom=0;html=1;whiteSpace=wrap;" vertex="1" parent="1">
          <mxGeometry x="6455" y="1590" width="270" height="740" as="geometry" />
        </mxCell>
        <mxCell id="k4_idVnGkL1J9dSwy2s4-87" value="- bookingService: BookingService&amp;nbsp;" style="text;html=1;strokeColor=none;fillColor=none;align=left;verticalAlign=middle;spacingLeft=4;spacingRight=4;overflow=hidden;rotatable=0;points=[[0,0.5],[1,0.5]];portConstraint=eastwest;whiteSpace=wrap;" vertex="1" parent="k4_idVnGkL1J9dSwy2s4-86">
          <mxGeometry y="30" width="270" height="40" as="geometry" />
        </mxCell>
        <mxCell id="k4_idVnGkL1J9dSwy2s4-95" value="- userService: UserService&amp;nbsp;" style="text;html=1;strokeColor=none;fillColor=none;align=left;verticalAlign=middle;spacingLeft=4;spacingRight=4;overflow=hidden;rotatable=0;points=[[0,0.5],[1,0.5]];portConstraint=eastwest;whiteSpace=wrap;" vertex="1" parent="k4_idVnGkL1J9dSwy2s4-86">
          <mxGeometry y="70" width="270" height="40" as="geometry" />
        </mxCell>
        <mxCell id="k4_idVnGkL1J9dSwy2s4-96" value="- emailService: EmailService&amp;nbsp;" style="text;html=1;strokeColor=none;fillColor=none;align=left;verticalAlign=middle;spacingLeft=4;spacingRight=4;overflow=hidden;rotatable=0;points=[[0,0.5],[1,0.5]];portConstraint=eastwest;whiteSpace=wrap;" vertex="1" parent="k4_idVnGkL1J9dSwy2s4-86">
          <mxGeometry y="110" width="270" height="40" as="geometry" />
        </mxCell>
        <mxCell id="k4_idVnGkL1J9dSwy2s4-97" value="- entityConverter: EntityConverter&amp;nbsp;" style="text;html=1;strokeColor=none;fillColor=none;align=left;verticalAlign=middle;spacingLeft=4;spacingRight=4;overflow=hidden;rotatable=0;points=[[0,0.5],[1,0.5]];portConstraint=eastwest;whiteSpace=wrap;" vertex="1" parent="k4_idVnGkL1J9dSwy2s4-86">
          <mxGeometry y="150" width="270" height="40" as="geometry" />
        </mxCell>
        <mxCell id="k4_idVnGkL1J9dSwy2s4-98" value="- bookingRepository: BookingRepository&amp;nbsp;" style="text;html=1;strokeColor=none;fillColor=none;align=left;verticalAlign=middle;spacingLeft=4;spacingRight=4;overflow=hidden;rotatable=0;points=[[0,0.5],[1,0.5]];portConstraint=eastwest;whiteSpace=wrap;" vertex="1" parent="k4_idVnGkL1J9dSwy2s4-86">
          <mxGeometry y="190" width="270" height="40" as="geometry" />
        </mxCell>
        <mxCell id="k4_idVnGkL1J9dSwy2s4-92" value="getBookingById(id: long): ResponseEntity&amp;lt;GetBookingByIdResponse&amp;gt;" style="text;html=1;strokeColor=none;fillColor=none;align=left;verticalAlign=middle;spacingLeft=4;spacingRight=4;overflow=hidden;rotatable=0;points=[[0,0.5],[1,0.5]];portConstraint=eastwest;whiteSpace=wrap;" vertex="1" parent="k4_idVnGkL1J9dSwy2s4-86">
          <mxGeometry y="230" width="270" height="50" as="geometry" />
        </mxCell>
        <mxCell id="k4_idVnGkL1J9dSwy2s4-99" value="getUsersBooking(id: long): ResponseEntity&amp;lt;GetUsersBookingResponse&amp;gt;" style="text;html=1;strokeColor=none;fillColor=none;align=left;verticalAlign=middle;spacingLeft=4;spacingRight=4;overflow=hidden;rotatable=0;points=[[0,0.5],[1,0.5]];portConstraint=eastwest;whiteSpace=wrap;" vertex="1" parent="k4_idVnGkL1J9dSwy2s4-86">
          <mxGeometry y="280" width="270" height="50" as="geometry" />
        </mxCell>
        <mxCell id="k4_idVnGkL1J9dSwy2s4-100" value="getUpcomingBookings(studentId: long): ResponseEntity&amp;lt;List&amp;lt;GetUpcoming&lt;br&gt;BookingsResponse&amp;gt;&amp;gt;" style="text;html=1;strokeColor=none;fillColor=none;align=left;verticalAlign=middle;spacingLeft=4;spacingRight=4;overflow=hidden;rotatable=0;points=[[0,0.5],[1,0.5]];portConstraint=eastwest;whiteSpace=wrap;" vertex="1" parent="k4_idVnGkL1J9dSwy2s4-86">
          <mxGeometry y="330" width="270" height="60" as="geometry" />
        </mxCell>
        <mxCell id="k4_idVnGkL1J9dSwy2s4-101" value="createBooking(request: CreateBookingRequest): ResponseEntity&amp;lt;CreateBookingResponse&amp;gt;" style="text;html=1;strokeColor=none;fillColor=none;align=left;verticalAlign=middle;spacingLeft=4;spacingRight=4;overflow=hidden;rotatable=0;points=[[0,0.5],[1,0.5]];portConstraint=eastwest;whiteSpace=wrap;" vertex="1" parent="k4_idVnGkL1J9dSwy2s4-86">
          <mxGeometry y="390" width="270" height="50" as="geometry" />
        </mxCell>
        <mxCell id="k4_idVnGkL1J9dSwy2s4-102" value="scheduleBooking(request: UpdateBookingStateRequest): ResponseEntity&amp;lt;Void&amp;gt;" style="text;html=1;strokeColor=none;fillColor=none;align=left;verticalAlign=middle;spacingLeft=4;spacingRight=4;overflow=hidden;rotatable=0;points=[[0,0.5],[1,0.5]];portConstraint=eastwest;whiteSpace=wrap;" vertex="1" parent="k4_idVnGkL1J9dSwy2s4-86">
          <mxGeometry y="440" width="270" height="60" as="geometry" />
        </mxCell>
        <mxCell id="k4_idVnGkL1J9dSwy2s4-103" value="cancelBooking(request: UpdateBookingStateRequest): ResponseEntity&amp;lt;Void&amp;gt;" style="text;html=1;strokeColor=none;fillColor=none;align=left;verticalAlign=middle;spacingLeft=4;spacingRight=4;overflow=hidden;rotatable=0;points=[[0,0.5],[1,0.5]];portConstraint=eastwest;whiteSpace=wrap;" vertex="1" parent="k4_idVnGkL1J9dSwy2s4-86">
          <mxGeometry y="500" width="270" height="60" as="geometry" />
        </mxCell>
        <mxCell id="k4_idVnGkL1J9dSwy2s4-104" value="acceptBooking(request: UpdateBookingStateRequest): ResponseEntity&amp;lt;Void&amp;gt;" style="text;html=1;strokeColor=none;fillColor=none;align=left;verticalAlign=middle;spacingLeft=4;spacingRight=4;overflow=hidden;rotatable=0;points=[[0,0.5],[1,0.5]];portConstraint=eastwest;whiteSpace=wrap;" vertex="1" parent="k4_idVnGkL1J9dSwy2s4-86">
          <mxGeometry y="560" width="270" height="60" as="geometry" />
        </mxCell>
        <mxCell id="k4_idVnGkL1J9dSwy2s4-105" value="finishBooking(request: UpdateBookingStateRequest): ResponseEntity&amp;lt;Void&amp;gt;" style="text;html=1;strokeColor=none;fillColor=none;align=left;verticalAlign=middle;spacingLeft=4;spacingRight=4;overflow=hidden;rotatable=0;points=[[0,0.5],[1,0.5]];portConstraint=eastwest;whiteSpace=wrap;" vertex="1" parent="k4_idVnGkL1J9dSwy2s4-86">
          <mxGeometry y="620" width="270" height="60" as="geometry" />
        </mxCell>
        <mxCell id="k4_idVnGkL1J9dSwy2s4-106" value="rescheduleBooking(request: RescheduleBookingRequest): ResponseEntity&amp;lt;RescheduleBookingResponse&amp;gt;" style="text;html=1;strokeColor=none;fillColor=none;align=left;verticalAlign=middle;spacingLeft=4;spacingRight=4;overflow=hidden;rotatable=0;points=[[0,0.5],[1,0.5]];portConstraint=eastwest;whiteSpace=wrap;" vertex="1" parent="k4_idVnGkL1J9dSwy2s4-86">
          <mxGeometry y="680" width="270" height="60" as="geometry" />
        </mxCell>
        <mxCell id="k4_idVnGkL1J9dSwy2s4-107" value="&lt;b&gt;&amp;lt;&amp;lt;interface&amp;gt;&amp;gt;&lt;br&gt;BookingService&lt;br&gt;&lt;/b&gt;" style="swimlane;fontStyle=0;align=center;verticalAlign=top;childLayout=stackLayout;horizontal=1;startSize=50;horizontalStack=0;resizeParent=1;resizeParentMax=0;resizeLast=0;collapsible=0;marginBottom=0;html=1;whiteSpace=wrap;" vertex="1" parent="1">
          <mxGeometry x="6450" y="2520" width="280" height="620" as="geometry" />
        </mxCell>
        <mxCell id="k4_idVnGkL1J9dSwy2s4-113" value="createBooking(booking: Booking): Optional&amp;lt;Booking&amp;gt;" style="text;html=1;strokeColor=none;fillColor=none;align=left;verticalAlign=middle;spacingLeft=4;spacingRight=4;overflow=hidden;rotatable=0;points=[[0,0.5],[1,0.5]];portConstraint=eastwest;whiteSpace=wrap;" vertex="1" parent="k4_idVnGkL1J9dSwy2s4-107">
          <mxGeometry y="50" width="280" height="50" as="geometry" />
        </mxCell>
        <mxCell id="k4_idVnGkL1J9dSwy2s4-114" value="rescheduleBooking(booking: Booking): Optional&amp;lt;Booking&amp;gt;" style="text;html=1;strokeColor=none;fillColor=none;align=left;verticalAlign=middle;spacingLeft=4;spacingRight=4;overflow=hidden;rotatable=0;points=[[0,0.5],[1,0.5]];portConstraint=eastwest;whiteSpace=wrap;" vertex="1" parent="k4_idVnGkL1J9dSwy2s4-107">
          <mxGeometry y="100" width="280" height="50" as="geometry" />
        </mxCell>
        <mxCell id="k4_idVnGkL1J9dSwy2s4-115" value="getUpcomingBookings(studentId: long): &amp;lt;List&amp;lt;GetUpcoming&lt;br&gt;BookingsResponse&amp;gt;" style="text;html=1;strokeColor=none;fillColor=none;align=left;verticalAlign=middle;spacingLeft=4;spacingRight=4;overflow=hidden;rotatable=0;points=[[0,0.5],[1,0.5]];portConstraint=eastwest;whiteSpace=wrap;" vertex="1" parent="k4_idVnGkL1J9dSwy2s4-107">
          <mxGeometry y="150" width="280" height="60" as="geometry" />
        </mxCell>
        <mxCell id="k4_idVnGkL1J9dSwy2s4-116" value="getBookingById(id: long): Optional&amp;lt;Booking&amp;gt;&amp;nbsp;" style="text;html=1;strokeColor=none;fillColor=none;align=left;verticalAlign=middle;spacingLeft=4;spacingRight=4;overflow=hidden;rotatable=0;points=[[0,0.5],[1,0.5]];portConstraint=eastwest;whiteSpace=wrap;" vertex="1" parent="k4_idVnGkL1J9dSwy2s4-107">
          <mxGeometry y="210" width="280" height="50" as="geometry" />
        </mxCell>
        <mxCell id="k4_idVnGkL1J9dSwy2s4-117" value="cancelAppointment(booking: Booking): void" style="text;html=1;strokeColor=none;fillColor=none;align=left;verticalAlign=middle;spacingLeft=4;spacingRight=4;overflow=hidden;rotatable=0;points=[[0,0.5],[1,0.5]];portConstraint=eastwest;whiteSpace=wrap;" vertex="1" parent="k4_idVnGkL1J9dSwy2s4-107">
          <mxGeometry y="260" width="280" height="60" as="geometry" />
        </mxCell>
        <mxCell id="k4_idVnGkL1J9dSwy2s4-118" value="createBooking2(booking: Booking, Date: String): Booking" style="text;html=1;strokeColor=none;fillColor=none;align=left;verticalAlign=middle;spacingLeft=4;spacingRight=4;overflow=hidden;rotatable=0;points=[[0,0.5],[1,0.5]];portConstraint=eastwest;whiteSpace=wrap;" vertex="1" parent="k4_idVnGkL1J9dSwy2s4-107">
          <mxGeometry y="320" width="280" height="60" as="geometry" />
        </mxCell>
        <mxCell id="k4_idVnGkL1J9dSwy2s4-121" value="scheduleBooking(request: UpdateBookingStateRequest): void" style="text;html=1;strokeColor=none;fillColor=none;align=left;verticalAlign=middle;spacingLeft=4;spacingRight=4;overflow=hidden;rotatable=0;points=[[0,0.5],[1,0.5]];portConstraint=eastwest;whiteSpace=wrap;" vertex="1" parent="k4_idVnGkL1J9dSwy2s4-107">
          <mxGeometry y="380" width="280" height="60" as="geometry" />
        </mxCell>
        <mxCell id="k4_idVnGkL1J9dSwy2s4-122" value="acceptBooking(request: UpdateBookingStateRequest): void" style="text;html=1;strokeColor=none;fillColor=none;align=left;verticalAlign=middle;spacingLeft=4;spacingRight=4;overflow=hidden;rotatable=0;points=[[0,0.5],[1,0.5]];portConstraint=eastwest;whiteSpace=wrap;" vertex="1" parent="k4_idVnGkL1J9dSwy2s4-107">
          <mxGeometry y="440" width="280" height="60" as="geometry" />
        </mxCell>
        <mxCell id="k4_idVnGkL1J9dSwy2s4-123" value="cancelBooking(request: UpdateBookingStateRequest): void" style="text;html=1;strokeColor=none;fillColor=none;align=left;verticalAlign=middle;spacingLeft=4;spacingRight=4;overflow=hidden;rotatable=0;points=[[0,0.5],[1,0.5]];portConstraint=eastwest;whiteSpace=wrap;" vertex="1" parent="k4_idVnGkL1J9dSwy2s4-107">
          <mxGeometry y="500" width="280" height="60" as="geometry" />
        </mxCell>
        <mxCell id="k4_idVnGkL1J9dSwy2s4-124" value="finishBooking(request: UpdateBookingStateRequest): void" style="text;html=1;strokeColor=none;fillColor=none;align=left;verticalAlign=middle;spacingLeft=4;spacingRight=4;overflow=hidden;rotatable=0;points=[[0,0.5],[1,0.5]];portConstraint=eastwest;whiteSpace=wrap;" vertex="1" parent="k4_idVnGkL1J9dSwy2s4-107">
          <mxGeometry y="560" width="280" height="60" as="geometry" />
        </mxCell>
        <mxCell id="k4_idVnGkL1J9dSwy2s4-125" value="&lt;b&gt;&amp;lt;&amp;lt;interface&amp;gt;&amp;gt;&lt;br&gt;BookingService&lt;br&gt;&lt;/b&gt;" style="swimlane;fontStyle=0;align=center;verticalAlign=top;childLayout=stackLayout;horizontal=1;startSize=50;horizontalStack=0;resizeParent=1;resizeParentMax=0;resizeLast=0;collapsible=0;marginBottom=0;html=1;whiteSpace=wrap;" vertex="1" parent="1">
          <mxGeometry x="5890" y="2450" width="270" height="800" as="geometry" />
        </mxCell>
        <mxCell id="k4_idVnGkL1J9dSwy2s4-140" value="- bookingRepository: BookingRepository&amp;nbsp;" style="text;html=1;strokeColor=none;fillColor=none;align=left;verticalAlign=middle;spacingLeft=4;spacingRight=4;overflow=hidden;rotatable=0;points=[[0,0.5],[1,0.5]];portConstraint=eastwest;whiteSpace=wrap;" vertex="1" parent="k4_idVnGkL1J9dSwy2s4-125">
          <mxGeometry y="50" width="270" height="40" as="geometry" />
        </mxCell>
        <mxCell id="k4_idVnGkL1J9dSwy2s4-138" value="- userRepository: UserRepository&amp;nbsp;" style="text;html=1;strokeColor=none;fillColor=none;align=left;verticalAlign=middle;spacingLeft=4;spacingRight=4;overflow=hidden;rotatable=0;points=[[0,0.5],[1,0.5]];portConstraint=eastwest;whiteSpace=wrap;" vertex="1" parent="k4_idVnGkL1J9dSwy2s4-125">
          <mxGeometry y="90" width="270" height="40" as="geometry" />
        </mxCell>
        <mxCell id="k4_idVnGkL1J9dSwy2s4-139" value="- entityManager: EntityManager" style="text;html=1;strokeColor=none;fillColor=none;align=left;verticalAlign=middle;spacingLeft=4;spacingRight=4;overflow=hidden;rotatable=0;points=[[0,0.5],[1,0.5]];portConstraint=eastwest;whiteSpace=wrap;" vertex="1" parent="k4_idVnGkL1J9dSwy2s4-125">
          <mxGeometry y="130" width="270" height="40" as="geometry" />
        </mxCell>
        <mxCell id="k4_idVnGkL1J9dSwy2s4-126" value="+ createBooking(booking: Booking): Optional&amp;lt;Booking&amp;gt;" style="text;html=1;strokeColor=none;fillColor=none;align=left;verticalAlign=middle;spacingLeft=4;spacingRight=4;overflow=hidden;rotatable=0;points=[[0,0.5],[1,0.5]];portConstraint=eastwest;whiteSpace=wrap;" vertex="1" parent="k4_idVnGkL1J9dSwy2s4-125">
          <mxGeometry y="170" width="270" height="50" as="geometry" />
        </mxCell>
        <mxCell id="k4_idVnGkL1J9dSwy2s4-127" value="+ rescheduleBooking(booking: Booking): Optional&amp;lt;Booking&amp;gt;" style="text;html=1;strokeColor=none;fillColor=none;align=left;verticalAlign=middle;spacingLeft=4;spacingRight=4;overflow=hidden;rotatable=0;points=[[0,0.5],[1,0.5]];portConstraint=eastwest;whiteSpace=wrap;" vertex="1" parent="k4_idVnGkL1J9dSwy2s4-125">
          <mxGeometry y="220" width="270" height="50" as="geometry" />
        </mxCell>
        <mxCell id="k4_idVnGkL1J9dSwy2s4-128" value="+ getUpcomingBookings(studentId: long): &amp;lt;List&amp;lt;GetUpcoming&lt;br&gt;BookingsResponse&amp;gt;" style="text;html=1;strokeColor=none;fillColor=none;align=left;verticalAlign=middle;spacingLeft=4;spacingRight=4;overflow=hidden;rotatable=0;points=[[0,0.5],[1,0.5]];portConstraint=eastwest;whiteSpace=wrap;" vertex="1" parent="k4_idVnGkL1J9dSwy2s4-125">
          <mxGeometry y="270" width="270" height="60" as="geometry" />
        </mxCell>
        <mxCell id="k4_idVnGkL1J9dSwy2s4-129" value="+ getBookingById(id: long): Optional&amp;lt;Booking&amp;gt;&amp;nbsp;" style="text;html=1;strokeColor=none;fillColor=none;align=left;verticalAlign=middle;spacingLeft=4;spacingRight=4;overflow=hidden;rotatable=0;points=[[0,0.5],[1,0.5]];portConstraint=eastwest;whiteSpace=wrap;" vertex="1" parent="k4_idVnGkL1J9dSwy2s4-125">
          <mxGeometry y="330" width="270" height="50" as="geometry" />
        </mxCell>
        <mxCell id="k4_idVnGkL1J9dSwy2s4-130" value="+ cancelAppointment(booking: Booking): void" style="text;html=1;strokeColor=none;fillColor=none;align=left;verticalAlign=middle;spacingLeft=4;spacingRight=4;overflow=hidden;rotatable=0;points=[[0,0.5],[1,0.5]];portConstraint=eastwest;whiteSpace=wrap;" vertex="1" parent="k4_idVnGkL1J9dSwy2s4-125">
          <mxGeometry y="380" width="270" height="60" as="geometry" />
        </mxCell>
        <mxCell id="k4_idVnGkL1J9dSwy2s4-131" value="+ createBooking2(booking: Booking, Date: String): Booking" style="text;html=1;strokeColor=none;fillColor=none;align=left;verticalAlign=middle;spacingLeft=4;spacingRight=4;overflow=hidden;rotatable=0;points=[[0,0.5],[1,0.5]];portConstraint=eastwest;whiteSpace=wrap;" vertex="1" parent="k4_idVnGkL1J9dSwy2s4-125">
          <mxGeometry y="440" width="270" height="60" as="geometry" />
        </mxCell>
        <mxCell id="k4_idVnGkL1J9dSwy2s4-132" value="+ scheduleBooking(request: UpdateBookingStateRequest): void" style="text;html=1;strokeColor=none;fillColor=none;align=left;verticalAlign=middle;spacingLeft=4;spacingRight=4;overflow=hidden;rotatable=0;points=[[0,0.5],[1,0.5]];portConstraint=eastwest;whiteSpace=wrap;" vertex="1" parent="k4_idVnGkL1J9dSwy2s4-125">
          <mxGeometry y="500" width="270" height="60" as="geometry" />
        </mxCell>
        <mxCell id="k4_idVnGkL1J9dSwy2s4-133" value="+ acceptBooking(request: UpdateBookingStateRequest): void" style="text;html=1;strokeColor=none;fillColor=none;align=left;verticalAlign=middle;spacingLeft=4;spacingRight=4;overflow=hidden;rotatable=0;points=[[0,0.5],[1,0.5]];portConstraint=eastwest;whiteSpace=wrap;" vertex="1" parent="k4_idVnGkL1J9dSwy2s4-125">
          <mxGeometry y="560" width="270" height="60" as="geometry" />
        </mxCell>
        <mxCell id="k4_idVnGkL1J9dSwy2s4-134" value="+ cancelBooking(request: UpdateBookingStateRequest): void" style="text;html=1;strokeColor=none;fillColor=none;align=left;verticalAlign=middle;spacingLeft=4;spacingRight=4;overflow=hidden;rotatable=0;points=[[0,0.5],[1,0.5]];portConstraint=eastwest;whiteSpace=wrap;" vertex="1" parent="k4_idVnGkL1J9dSwy2s4-125">
          <mxGeometry y="620" width="270" height="60" as="geometry" />
        </mxCell>
        <mxCell id="k4_idVnGkL1J9dSwy2s4-135" value="+ finishBooking(request: UpdateBookingStateRequest): void" style="text;html=1;strokeColor=none;fillColor=none;align=left;verticalAlign=middle;spacingLeft=4;spacingRight=4;overflow=hidden;rotatable=0;points=[[0,0.5],[1,0.5]];portConstraint=eastwest;whiteSpace=wrap;" vertex="1" parent="k4_idVnGkL1J9dSwy2s4-125">
          <mxGeometry y="680" width="270" height="60" as="geometry" />
        </mxCell>
        <mxCell id="k4_idVnGkL1J9dSwy2s4-136" value="- convertStringToDate(dateString: String): Date" style="text;html=1;strokeColor=none;fillColor=none;align=left;verticalAlign=middle;spacingLeft=4;spacingRight=4;overflow=hidden;rotatable=0;points=[[0,0.5],[1,0.5]];portConstraint=eastwest;whiteSpace=wrap;" vertex="1" parent="k4_idVnGkL1J9dSwy2s4-125">
          <mxGeometry y="740" width="270" height="60" as="geometry" />
        </mxCell>
        <mxCell id="k4_idVnGkL1J9dSwy2s4-142" value="" style="endArrow=block;startArrow=none;endFill=0;startFill=0;endSize=8;html=1;verticalAlign=bottom;dashed=1;labelBackgroundColor=none;rounded=0;exitX=1;exitY=0.5;exitDx=0;exitDy=0;entryX=-0.006;entryY=0.431;entryDx=0;entryDy=0;entryPerimeter=0;" edge="1" parent="1" source="k4_idVnGkL1J9dSwy2s4-129" target="k4_idVnGkL1J9dSwy2s4-117">
          <mxGeometry width="160" relative="1" as="geometry">
            <mxPoint x="6250" y="2640" as="sourcePoint" />
            <mxPoint x="6410" y="2640" as="targetPoint" />
          </mxGeometry>
        </mxCell>
        <mxCell id="k4_idVnGkL1J9dSwy2s4-144" value="&lt;font style=&quot;font-size: 12px;&quot;&gt;&amp;lt;&amp;lt;implements&amp;gt;&amp;gt;&lt;/font&gt;" style="edgeLabel;html=1;align=center;verticalAlign=middle;resizable=0;points=[];" vertex="1" connectable="0" parent="k4_idVnGkL1J9dSwy2s4-142">
          <mxGeometry x="-0.0447" y="-2" relative="1" as="geometry">
            <mxPoint x="12" y="-17" as="offset" />
          </mxGeometry>
        </mxCell>
        <mxCell id="k4_idVnGkL1J9dSwy2s4-143" value="" style="endArrow=open;startArrow=none;endFill=0;startFill=0;endSize=8;html=1;verticalAlign=bottom;labelBackgroundColor=none;strokeWidth=1;rounded=0;entryX=0.5;entryY=0;entryDx=0;entryDy=0;exitX=0.504;exitY=1.014;exitDx=0;exitDy=0;exitPerimeter=0;" edge="1" parent="1" source="k4_idVnGkL1J9dSwy2s4-106" target="k4_idVnGkL1J9dSwy2s4-107">
          <mxGeometry width="160" relative="1" as="geometry">
            <mxPoint x="6590" y="2360" as="sourcePoint" />
            <mxPoint x="6330" y="2390" as="targetPoint" />
          </mxGeometry>
        </mxCell>
        <mxCell id="k4_idVnGkL1J9dSwy2s4-147" value="&lt;b&gt;&amp;lt;&amp;lt;interface&amp;gt;&amp;gt;&lt;br&gt;BookingRepository&lt;br&gt;&lt;/b&gt;" style="swimlane;fontStyle=0;align=center;verticalAlign=top;childLayout=stackLayout;horizontal=1;startSize=50;horizontalStack=0;resizeParent=1;resizeParentMax=0;resizeLast=0;collapsible=0;marginBottom=0;html=1;whiteSpace=wrap;" vertex="1" parent="1">
          <mxGeometry x="5884" y="3367" width="280" height="310" as="geometry" />
        </mxCell>
        <mxCell id="k4_idVnGkL1J9dSwy2s4-157" value="findByStudent(student: UserEntity): List&amp;lt;BookingEntity&amp;gt;" style="text;html=1;strokeColor=none;fillColor=none;align=left;verticalAlign=middle;spacingLeft=4;spacingRight=4;overflow=hidden;rotatable=0;points=[[0,0.5],[1,0.5]];portConstraint=eastwest;whiteSpace=wrap;" vertex="1" parent="k4_idVnGkL1J9dSwy2s4-147">
          <mxGeometry y="50" width="280" height="60" as="geometry" />
        </mxCell>
        <mxCell id="k4_idVnGkL1J9dSwy2s4-162" value="findByTutor(tutor: UserEntity): List&amp;lt;BookingEntity&amp;gt;" style="text;html=1;strokeColor=none;fillColor=none;align=left;verticalAlign=middle;spacingLeft=4;spacingRight=4;overflow=hidden;rotatable=0;points=[[0,0.5],[1,0.5]];portConstraint=eastwest;whiteSpace=wrap;" vertex="1" parent="k4_idVnGkL1J9dSwy2s4-147">
          <mxGeometry y="110" width="280" height="50" as="geometry" />
        </mxCell>
        <mxCell id="k4_idVnGkL1J9dSwy2s4-163" value="{@Query} getUpcomingBookings(student: UserEntity): List&amp;lt;BookingEntity&amp;gt;&amp;nbsp;" style="text;html=1;strokeColor=none;fillColor=none;align=left;verticalAlign=middle;spacingLeft=4;spacingRight=4;overflow=hidden;rotatable=0;points=[[0,0.5],[1,0.5]];portConstraint=eastwest;whiteSpace=wrap;" vertex="1" parent="k4_idVnGkL1J9dSwy2s4-147">
          <mxGeometry y="160" width="280" height="50" as="geometry" />
        </mxCell>
        <mxCell id="k4_idVnGkL1J9dSwy2s4-164" value="findByDateAndStartTimeAndEndTime(date: Date, start: Integer, end: Integer): List&amp;lt;BookingEntity&amp;gt;" style="text;html=1;strokeColor=none;fillColor=none;align=left;verticalAlign=middle;spacingLeft=4;spacingRight=4;overflow=hidden;rotatable=0;points=[[0,0.5],[1,0.5]];portConstraint=eastwest;whiteSpace=wrap;" vertex="1" parent="k4_idVnGkL1J9dSwy2s4-147">
          <mxGeometry y="210" width="280" height="50" as="geometry" />
        </mxCell>
        <mxCell id="k4_idVnGkL1J9dSwy2s4-165" value="{@Query} updateBookingState(bookingId: long, bookingState: Integer): void&amp;nbsp;" style="text;html=1;strokeColor=none;fillColor=none;align=left;verticalAlign=middle;spacingLeft=4;spacingRight=4;overflow=hidden;rotatable=0;points=[[0,0.5],[1,0.5]];portConstraint=eastwest;whiteSpace=wrap;" vertex="1" parent="k4_idVnGkL1J9dSwy2s4-147">
          <mxGeometry y="260" width="280" height="50" as="geometry" />
        </mxCell>
        <mxCell id="k4_idVnGkL1J9dSwy2s4-158" value="" style="endArrow=block;startArrow=none;endFill=0;startFill=0;endSize=8;html=1;verticalAlign=bottom;dashed=1;labelBackgroundColor=none;rounded=0;exitX=0.996;exitY=0.616;exitDx=0;exitDy=0;entryX=-0.004;entryY=0.14;entryDx=0;entryDy=0;entryPerimeter=0;exitPerimeter=0;" edge="1" parent="1" source="k4_idVnGkL1J9dSwy2s4-162">
          <mxGeometry width="160" relative="1" as="geometry">
            <mxPoint x="6167" y="3507" as="sourcePoint" />
            <mxPoint x="6453.879999999999" y="3508.3999999999996" as="targetPoint" />
          </mxGeometry>
        </mxCell>
        <mxCell id="k4_idVnGkL1J9dSwy2s4-159" value="&lt;font style=&quot;font-size: 12px;&quot;&gt;&amp;lt;&amp;lt;implements&amp;gt;&amp;gt;&lt;/font&gt;" style="edgeLabel;html=1;align=center;verticalAlign=middle;resizable=0;points=[];" vertex="1" connectable="0" parent="k4_idVnGkL1J9dSwy2s4-158">
          <mxGeometry x="-0.0447" y="-2" relative="1" as="geometry">
            <mxPoint x="12" y="-17" as="offset" />
          </mxGeometry>
        </mxCell>
        <mxCell id="k4_idVnGkL1J9dSwy2s4-160" value="&lt;b&gt;&amp;lt;&amp;lt;interface&amp;gt;&amp;gt;&lt;br&gt;JpaRepository&lt;br&gt;&lt;/b&gt;" style="swimlane;fontStyle=0;align=center;verticalAlign=top;childLayout=stackLayout;horizontal=1;startSize=50;horizontalStack=0;resizeParent=1;resizeParentMax=0;resizeLast=0;collapsible=0;marginBottom=0;html=1;whiteSpace=wrap;" vertex="1" parent="1">
          <mxGeometry x="6455" y="3450" width="280" height="110" as="geometry" />
        </mxCell>
        <mxCell id="k4_idVnGkL1J9dSwy2s4-168" value="" style="endArrow=open;startArrow=none;endFill=0;startFill=0;endSize=8;html=1;verticalAlign=bottom;labelBackgroundColor=none;strokeWidth=1;rounded=0;entryX=0.5;entryY=0;entryDx=0;entryDy=0;exitX=0.495;exitY=0.999;exitDx=0;exitDy=0;exitPerimeter=0;" edge="1" parent="1" source="k4_idVnGkL1J9dSwy2s4-136" target="k4_idVnGkL1J9dSwy2s4-147">
          <mxGeometry width="160" relative="1" as="geometry">
            <mxPoint x="6019" y="3220.16" as="sourcePoint" />
            <mxPoint x="6018" y="3409.16" as="targetPoint" />
          </mxGeometry>
        </mxCell>
      </root>
    </mxGraphModel>
  </diagram>
</mxfile>
